<svg id="Group_35" data-name="Group 35" xmlns="http://www.w3.org/2000/svg" width="24.108" height="24.108" viewBox="0 0 24.108 24.108">
  <path id="Path_1" data-name="Path 1" d="M7.054,19.108A12.054,12.054,0,1,1,13.778-2.955a1.275,1.275,0,0,1,.543.82,1.278,1.278,0,0,1-.2.964A1.284,1.284,0,0,1,13.058-.6a1.278,1.278,0,0,1-.717-.22A9.42,9.42,0,0,0,7.054-2.43a9.481,9.481,0,1,0,9.11,6.844,1.285,1.285,0,0,1,.873-1.594,1.283,1.283,0,0,1,1.594.872,11.952,11.952,0,0,1,.478,3.361A12.068,12.068,0,0,1,7.054,19.108Z" transform="translate(5 5)" fill="#39d1ad"/>
  <path id="Path_2" data-name="Path 2" d="M11.748,23.5A11.75,11.75,0,0,0,23.031,8.473a.979.979,0,1,0-1.879.55,9.777,9.777,0,1,1-3.945-5.406A.979.979,0,0,0,18.3,1.993a11.75,11.75,0,1,0-6.553,21.5Z" transform="translate(0.306 0.306)" fill="#39d1ad"/>
  <path id="Path_3" data-name="Path 3" d="M112.215,40.342a1.276,1.276,0,0,1-.909-.376l-3.916-3.916a1.285,1.285,0,0,1,1.817-1.817l3.008,3.007,9.86-9.86a1.285,1.285,0,0,1,1.817,1.817L113.123,39.965A1.277,1.277,0,0,1,112.215,40.342Z" transform="translate(-100.161 -25.045)" fill="#39d1ad"/>
  <path id="Path_4" data-name="Path 4" d="M126.974,32.289,116.9,42.366l-3.224-3.223a.979.979,0,0,0-1.384,1.384l3.916,3.916a.979.979,0,0,0,1.384,0l10.769-10.769a.979.979,0,1,0-1.384-1.384Z" transform="translate(-104.843 -29.739)" fill="#39d1ad"/>
</svg>
