<svg xmlns="http://www.w3.org/2000/svg" width="48" height="48" viewBox="0 0 48 48">
  <circle id="Ellipse_528" data-name="Ellipse 528" cx="24" cy="24" r="24" fill="#fff" opacity="0.15"/>
  <g id="noun_Location_3765440" transform="translate(81.31 -61.572)">
    <path id="Path_18467" data-name="Path 18467" d="M19.69,3A8.694,8.694,0,0,0,11,11.69a13.479,13.479,0,0,0,1.79,5.422,75.308,75.308,0,0,0,6.245,9.568.828.828,0,0,0,1.308,0,75.308,75.308,0,0,0,6.245-9.568,13.479,13.479,0,0,0,1.79-5.422A8.694,8.694,0,0,0,19.69,3Zm0,4.966a3.724,3.724,0,1,0,3.724,3.724A3.726,3.726,0,0,0,19.69,7.966Z" transform="translate(-77 70.572)" fill="#fff" fill-rule="evenodd"/>
  </g>
</svg>
