<svg id="logo" xmlns="http://www.w3.org/2000/svg" width="183.085" height="65.124" viewBox="0 0 183.085 65.124">
  <g id="Layer_1" data-name="Layer 1">
    <path id="Path_18484" data-name="Path 18484" d="M763.021,180.538a5.715,5.715,0,0,0-4.151-3.668c.012.9.935,1.01.9,1.713-6.274-2.937-10.333-2.085-14.929,3.1a63.841,63.841,0,0,0-4.849,6.262c-.339.495-.865.945-.719,1.653C744.311,193.216,761.543,186.652,763.021,180.538Z" transform="translate(-587.422 -140.545)" fill="#881729"/>
    <path id="Path_18485" data-name="Path 18485" d="M589.547,47.13a12.885,12.885,0,0,1,11.47-.941,6.572,6.572,0,0,0,2.851.743c1.877-2.853,3.719-5.769,5.681-8.6,3.27-4.724,6.718-9.31,11.234-12.939,2.208-1.772,4.518-3.422,7.394-4a8.568,8.568,0,0,1,8.86,3.668,14.9,14.9,0,0,1,2.393,5.219V0H574.31V63.7A37.91,37.91,0,0,1,589.547,47.13ZM588.2,28.811c1.762-3.461,5.562-10.3,5.993-10.7,5.34,2.8,10.758,5.369,15.465,9.7-2.417,5.03-4.6,10.051-6.728,15.488l-14.769-9.437a46,46,0,0,1,2.8-7.835C589.633,26.7,589.617,28.092,588.2,28.811Z" transform="translate(-456.359)" fill="#881729"/>
    <path id="Path_18486" data-name="Path 18486" d="M648.159,172.93a14.443,14.443,0,0,1-.9,2.746c-2.017,4.539-3.816,9.2-7.166,13.009a1.041,1.041,0,0,0-.392,1.115c2.128-1.553,3.12-4.009,5.25-6.122a19.473,19.473,0,0,1-5.153,7.166c-5.206,4.541-10.916,8.271-17.771,9.932a24.742,24.742,0,0,1-17.457-1.875c-.676-.339-1.386-.616-2.037-.992-4.911-2.863-9.293-1.507-13.489,1.618-1.275.949-2.454,2.033-3.748,3.011h62.869Z" transform="translate(-465.084 -137.414)" fill="#881729"/>
    <path id="Path_18487" data-name="Path 18487" d="M593.82,142.567c.651.38,1.362.653,2.037.992a24.731,24.731,0,0,0,17.457,1.875c6.856-1.662,12.565-5.391,17.771-9.932a19.542,19.542,0,0,0,5.153-7.166c-2.13,2.113-3.122,4.57-5.25,6.122a1.04,1.04,0,0,1,.392-1.115c3.35-3.81,5.149-8.47,7.166-13.009a14.433,14.433,0,0,0,.912-2.746V112.35a14.9,14.9,0,0,0-2.4-5.221,8.568,8.568,0,0,0-8.86-3.668c-2.875.581-5.19,2.23-7.394,4-4.518,3.629-7.965,8.215-11.234,12.939-1.961,2.832-3.8,5.751-5.681,8.6a6.46,6.46,0,0,1-2.851-.743,12.885,12.885,0,0,0-11.47.941,37.886,37.886,0,0,0-15.237,16.572v1.421h2.259c1.294-.978,2.465-2.054,3.748-3.011C584.531,141.06,588.91,139.7,593.82,142.567Zm15.12-13.095a63.846,63.846,0,0,1,4.849-6.262c4.6-5.184,8.655-6.036,14.929-3.1.035-.7-.887-.822-.9-1.713a5.715,5.715,0,0,1,4.151,3.668c-1.475,6.114-18.706,12.678-23.748,9.059C608.076,130.417,608.6,129.967,608.94,129.472Z" transform="translate(-456.375 -82.073)" fill="#fff"/>
    <path id="Path_18488" data-name="Path 18488" d="M656.5,113.344c2.13-5.436,4.313-10.458,6.728-15.488-4.707-4.327-10.133-6.9-15.465-9.7-.431.411-4.231,7.244-5.993,10.7,1.421-.719,1.438-2.107,2.758-2.793a45.988,45.988,0,0,0-2.8,7.835Z" transform="translate(-509.932 -70.054)" fill="#fff"/>
    <rect id="Rectangle_2787" data-name="Rectangle 2787" width="1.779" height="64.986" transform="translate(112.521 0.068)" fill="#fff"/>
    <path id="Path_18489" data-name="Path 18489" d="M31.78,114.355a1.438,1.438,0,0,0,1.413-1.411,1.413,1.413,0,0,0-1.411-1.384,1.388,1.388,0,0,0-1.382,1.384,1.411,1.411,0,0,0,1.38,1.411Z" transform="translate(-24.156 -88.648)" fill="#fff"/>
    <path id="Path_18490" data-name="Path 18490" d="M50,98.88a4.8,4.8,0,0,0-4.151,1.818,6.754,6.754,0,0,0-1.113,4.017v.867c0,1.818-.9,2.713-2.658,2.713h-.411v-.053H15.438v-7.408l-2.578.787v8.086c0,2.465-1.547,3.7-4.666,3.7-3.8,0-5.264-1.655-5.264-5.888v-2.366l-2.551.76c-.055,3.12.329,5.373,1.167,6.81,1.167,2.007,3.364,3.011,6.619,3.011q6.88,0,7.246-5.208H42.246a5.155,5.155,0,0,0,3.988-1.438,5.093,5.093,0,0,0,3.771,1.438,4.765,4.765,0,0,0,4.124-1.848,6.577,6.577,0,0,0,1.113-3.96,6.824,6.824,0,0,0-1.113-4.017A4.793,4.793,0,0,0,50,98.88Zm0,9.447c-1.791,0-2.686-1.2-2.686-3.609s.9-3.637,2.686-3.637,2.66,1.232,2.66,3.637-.889,3.6-2.66,3.6Z" transform="translate(-0.298 -78.572)" fill="#fff"/>
    <path id="Path_18491" data-name="Path 18491" d="M480.273,73.2a1.438,1.438,0,0,0,1.464-1.409,1.481,1.481,0,0,0-2.957,0,1.438,1.438,0,0,0,1.493,1.409Z" transform="translate(-380.449 -55.933)" fill="#fff"/>
    <path id="Path_18492" data-name="Path 18492" d="M520.13,138.59Z" transform="translate(-413.306 -110.127)" fill="#fff"/>
    <path id="Path_18493" data-name="Path 18493" d="M327.195,78.869a6.348,6.348,0,0,0-5.968-3.12,8.308,8.308,0,0,0-7.081,4.015,12.409,12.409,0,0,0-1.791,4.015V77.974l-2.577.725v6.864h-26.97a1.159,1.159,0,0,1-1.329-1.3V70.35l-2.577.822V84.357a3.272,3.272,0,0,0,3.58,3.5h45.8c.1-2.419.154-3.574.162-3.491A10.405,10.405,0,0,0,327.195,78.869Zm-1.382,6.7h-12.1a7.965,7.965,0,0,1,2.306-4.695,6.9,6.9,0,0,1,5.264-2.766,4.034,4.034,0,0,1,3.609,1.953,7.871,7.871,0,0,1,1,4.179A10.774,10.774,0,0,1,325.813,85.571Z" transform="translate(-221.62 -55.902)" fill="#fff"/>
    <path id="Path_18494" data-name="Path 18494" d="M13.248,211.9a.571.571,0,0,0,.559-.559.561.561,0,0,0-.559-.548.552.552,0,0,0-.548.548.561.561,0,0,0,.548.559Z" transform="translate(-10.092 -167.498)" fill="#fff"/>
    <path id="Path_18495" data-name="Path 18495" d="M6.149,211.965a.571.571,0,0,0,.569-.559.565.565,0,0,0-1.128,0,.571.571,0,0,0,.559.559Z" transform="translate(-4.442 -167.566)" fill="#fff"/>
    <path id="Path_18496" data-name="Path 18496" d="M40.176,249.06a.548.548,0,0,0-.546.548.559.559,0,0,0,.546.559.571.571,0,0,0,.557-.559A.561.561,0,0,0,40.176,249.06Z" transform="translate(-31.491 -197.908)" fill="#fff"/>
    <path id="Path_18497" data-name="Path 18497" d="M33.168,249.06a.542.542,0,0,0-.548.548.552.552,0,0,0,.548.559.569.569,0,0,0,.557-.559A.559.559,0,0,0,33.168,249.06Z" transform="translate(-25.92 -197.908)" fill="#fff"/>
    <path id="Path_18498" data-name="Path 18498" d="M57.1,249.106a.555.555,0,1,0,.521.553A.554.554,0,0,0,57.1,249.106Z" transform="translate(-44.909 -197.944)" fill="#fff"/>
    <path id="Path_18499" data-name="Path 18499" d="M15.857,223.665A.954.954,0,0,1,14.8,224.76H13.7a.937.937,0,0,1-1.062-1.062v-2.9l-1.01.3v2.565a.956.956,0,0,1-1.072,1.095H9.528A.941.941,0,0,1,8.464,223.7v-2.9l-1.008.3v2.565a.958.958,0,0,1-1.074,1.095h-1.1c-.7,0-1.052-.366-1.052-1.095V220.79H2.054c-1.362,0-2.054.795-2.054,2.384,0,1.643.688,2.465,2.054,2.465a1.575,1.575,0,0,0,1.579-.752c.226.505.762.752,1.6.752H6.447a2.027,2.027,0,0,0,1.524-.569,1.982,1.982,0,0,0,1.493.569h1.154a2.019,2.019,0,0,0,1.524-.569,1.986,1.986,0,0,0,1.493.569h1.214a2.035,2.035,0,0,0,1.471-.536,1.83,1.83,0,0,0,.548-1.364V220.8l-1.01.3ZM3.21,223.183a2.358,2.358,0,0,1-.216,1.142.919.919,0,0,1-.879.429.918.918,0,0,1-.883-.429,2.36,2.36,0,0,1-.205-1.148,2.4,2.4,0,0,1,.205-1.138.933.933,0,0,1,.881-.411H3.208Z" transform="translate(0 -175.444)" fill="#fff"/>
    <path id="Path_18500" data-name="Path 18500" d="M69.135,249.06a.561.561,0,0,0-.559.548.554.554,0,1,0,.559-.548Z" transform="translate(-54.491 -197.908)" fill="#fff"/>
    <path id="Path_18501" data-name="Path 18501" d="M76.159,249.06a.561.561,0,0,0-.569.548.571.571,0,0,0,.569.559.561.561,0,0,0,.542-.559.55.55,0,0,0-.542-.548Z" transform="translate(-60.065 -197.908)" fill="#fff"/>
    <path id="Path_18502" data-name="Path 18502" d="M134.939,211.811a.559.559,0,1,0-.589-.559.569.569,0,0,0,.589.559Z" transform="translate(-106.757 -167.422)" fill="#fff"/>
    <path id="Path_18503" data-name="Path 18503" d="M99.006,215.7c0,.729-.353,1.095-1.052,1.095H96.634a4.851,4.851,0,0,0-.483-2.651,2.514,2.514,0,0,0-2.362-1.232,3.286,3.286,0,0,0-2.8,1.59A4.929,4.929,0,0,0,90.3,216v-2.216l-1.027.29v2.713H86.734v-3.937l-1.027.3v4.251a1.321,1.321,0,0,1-1.395,1.46,3.285,3.285,0,0,1-1.643-.411l.5,1a2.112,2.112,0,0,0,1.15.292,2.24,2.24,0,0,0,2.4-2.054H98.008a2.031,2.031,0,0,0,1.471-.536,1.848,1.848,0,0,0,.548-1.364V210.79l-1.027.3Zm-3.4,1.091H90.815a3.11,3.11,0,0,1,.912-1.859,2.735,2.735,0,0,1,2.083-1.095,1.6,1.6,0,0,1,1.438.772,3.124,3.124,0,0,1,.4,1.655A4.018,4.018,0,0,1,95.6,216.789Z" transform="translate(-65.691 -167.498)" fill="#fff"/>
    <path id="Path_18504" data-name="Path 18504" d="M171.67,217.615h1.021V210.69l-1.021.322Z" transform="translate(-136.413 -167.419)" fill="#fff"/>
    <path id="Path_18505" data-name="Path 18505" d="M183.223,221.72a1.889,1.889,0,0,0-1.653.762,2.837,2.837,0,0,0-.439,1.643,2.8,2.8,0,0,0,.439,1.633,1.872,1.872,0,0,0,1.653.772,2.076,2.076,0,0,0,1.027-.257,1.264,1.264,0,0,1-1.29,1.277,3.492,3.492,0,0,1-1.707-.376l.45.988a2.426,2.426,0,0,0,1.257.279,2.127,2.127,0,0,0,1.74-.731,2.611,2.611,0,0,0,.569-1.75c0-.107.01-.333.033-.676s.01-.581.01-.785a4.111,4.111,0,0,0-.353-1.9A1.835,1.835,0,0,0,183.223,221.72Zm0,3.919c-.719,0-1.084-.505-1.084-1.514s.366-1.524,1.084-1.524,1.074.5,1.074,1.524S183.941,225.639,183.223,225.639Z" transform="translate(-143.927 -176.183)" fill="#fff"/>
    <path id="Path_18506" data-name="Path 18506" d="M220.581,211.81a.573.573,0,0,0,.569-.559.565.565,0,1,0-.569.559Z" transform="translate(-174.833 -167.411)" fill="#fff"/>
    <path id="Path_18507" data-name="Path 18507" d="M227.688,211.9a.569.569,0,0,0,.557-.559.559.559,0,0,0-.557-.548.55.55,0,0,0-.548.548A.561.561,0,0,0,227.688,211.9Z" transform="translate(-180.49 -167.498)" fill="#fff"/>
    <path id="Path_18508" data-name="Path 18508" d="M221.933,223.665a.953.953,0,0,1-1.062,1.095h-1.158a.952.952,0,0,1-1.054-1.095V220.79h-2.185c-1.364,0-2.054.795-2.054,2.384q0,2.465,2.054,2.465a1.573,1.573,0,0,0,1.577-.752c.226.505.764.752,1.6.752h1.267a2.031,2.031,0,0,0,1.471-.536,1.83,1.83,0,0,0,.548-1.364V220.8l-1,.3Zm-4.292-.483a2.358,2.358,0,0,1-.205,1.148,1.117,1.117,0,0,1-1.76,0,2.358,2.358,0,0,1-.205-1.148,2.278,2.278,0,0,1,.205-1.138.927.927,0,0,1,.879-.411h1.1Z" transform="translate(-170.383 -175.444)" fill="#fff"/>
    <path id="Path_18509" data-name="Path 18509" d="M242.909,249.06a.559.559,0,0,0-.559.548.552.552,0,1,0,.559-.548Z" transform="translate(-192.576 -197.908)" fill="#fff"/>
    <path id="Path_18510" data-name="Path 18510" d="M249.921,249.06a.563.563,0,0,0-.571.548.573.573,0,0,0,.571.559.559.559,0,0,0,.546-.559A.548.548,0,0,0,249.921,249.06Z" transform="translate(-198.139 -197.908)" fill="#fff"/>
    <path id="Path_18511" data-name="Path 18511" d="M270.614,213.873a2.7,2.7,0,0,0-1.869-.678,3.672,3.672,0,0,0-.472.033l2.319-2.438H269.26l-3.339,3.479.7.655a2.362,2.362,0,0,1,1.879-.838,2.019,2.019,0,0,1,1.438.516,1.776,1.776,0,0,1,.516,1.041,7.991,7.991,0,0,1,.043,1.171h-5.956c.01-.536.021-.976.021-1.31q0-2.511-2.054-2.512a1.924,1.924,0,0,0-1.666.795,2.908,2.908,0,0,0-.47,1.717,2.156,2.156,0,0,0,.546,1.547,2.232,2.232,0,0,0,1.664.645h.838a1.306,1.306,0,0,1-1.257,1.171,3.761,3.761,0,0,1-1.684-.376l.45.988a2.366,2.366,0,0,0,1.257.279,2.08,2.08,0,0,0,1.557-.616,2.538,2.538,0,0,0,.7-1.438h7.1c0-1.214-.01-1.9-.031-2.054a2.67,2.67,0,0,0-.889-1.777Zm-7.086,2.941h-.947c-.793,0-1.191-.44-1.191-1.31,0-1.084.376-1.62,1.117-1.62a.881.881,0,0,1,.891.536,2.967,2.967,0,0,1,.14,1.084Z" transform="translate(-206.893 -167.498)" fill="#fff"/>
    <path id="Path_18512" data-name="Path 18512" d="M330.206,211.818a.565.565,0,1,0-.531-.564A.565.565,0,0,0,330.206,211.818Z" transform="translate(-261.967 -167.419)" fill="#fff"/>
    <path id="Path_18513" data-name="Path 18513" d="M322.345,215.7c0,.729-.353,1.095-1.052,1.095H319.4v-3.941l-1.027.3v4.251a1.321,1.321,0,0,1-1.4,1.46,3.286,3.286,0,0,1-1.631-.411l.483,1.008a2.109,2.109,0,0,0,1.148.292,2.242,2.242,0,0,0,2.407-2.054h1.953a2.035,2.035,0,0,0,1.47-.536,1.848,1.848,0,0,0,.548-1.364V210.79l-1.027.3Z" transform="translate(-250.584 -167.498)" fill="#fff"/>
    <path id="Path_18514" data-name="Path 18514" d="M358.87,217.615h1.021V210.69l-1.021.322Z" transform="translate(-285.166 -167.419)" fill="#fff"/>
    <path id="Path_18515" data-name="Path 18515" d="M381.716,211.1v6.324a1.247,1.247,0,0,1-.505,1.117,2.606,2.606,0,0,1-1.331.257,1.962,1.962,0,0,1-1.62-.6,3.565,3.565,0,0,1-.462-2.115l-1.027.333a4.648,4.648,0,0,0,.752,2.448,2.854,2.854,0,0,0,2.341.891c1.922,0,2.875-.785,2.875-2.352l-.01-6.615Z" transform="translate(-299.389 -167.498)" fill="#fff"/>
    <path id="Path_18516" data-name="Path 18516" d="M432.625,211.012v4.607a.952.952,0,0,1-1.054,1.095h-1.01a.925.925,0,0,1-1.052-1.041V210.69l-1.027.322v4.607a.954.954,0,0,1-1.064,1.095h-1.869v-.366a5.244,5.244,0,0,0-.431-2.395,2.328,2.328,0,0,0-2.259-1.181,3.33,3.33,0,0,0-2.362,1.054l.729.676a2.2,2.2,0,0,1,1.633-.822,1.379,1.379,0,0,1,1.417.9,5.031,5.031,0,0,1,.226,1.772v.386h-4.547v-.031h-.645a.926.926,0,0,1-1.052-1.041V210.69l-1.027.322v4.607a.953.953,0,0,1-1.062,1.095h-.807v.021h-.9c0-.536.021-.976.021-1.31,0-1.674-.688-2.512-2.054-2.512a1.922,1.922,0,0,0-1.664.795,2.908,2.908,0,0,0-.472,1.717,2.157,2.157,0,0,0,.548,1.547,2.233,2.233,0,0,0,1.664.645h.838a1.306,1.306,0,0,1-1.257,1.171,3.775,3.775,0,0,1-1.686-.376l.452.988a2.366,2.366,0,0,0,1.257.279,2.081,2.081,0,0,0,1.557-.616,2.553,2.553,0,0,0,.7-1.438h1.877a1.952,1.952,0,0,0,1.514-.579,1.984,1.984,0,0,0,1.493.579h8.246a1.952,1.952,0,0,0,1.514-.579,1.982,1.982,0,0,0,1.493.579h1.125a2.039,2.039,0,0,0,1.473-.536,1.848,1.848,0,0,0,.546-1.364v-5.013Zm-19.176,5.722H412.5c-.795,0-1.191-.44-1.191-1.31,0-1.084.376-1.62,1.115-1.62a.879.879,0,0,1,.891.536,2.967,2.967,0,0,1,.14,1.084Z" transform="translate(-326.023 -167.419)" fill="#fff"/>
  </g>
</svg>
