<svg xmlns="http://www.w3.org/2000/svg" width="48" height="48" viewBox="0 0 48 48">
  <circle id="Ellipse_528" data-name="Ellipse 528" cx="24" cy="24" r="24" fill="#fff" opacity="0.15"/>
  <path id="Icon_zocial-email" data-name="Icon zocial-email" d="M.072,18.957V5.515q0-.023.07-.443l7.911,6.768L.165,19.423a1.978,1.978,0,0,1-.093-.467ZM1.122,4.138a1.006,1.006,0,0,1,.4-.07H22.825a1.321,1.321,0,0,1,.42.07l-7.934,6.791-1.05.84-2.077,1.7-2.077-1.7-1.05-.84Zm.023,16.2L9.1,12.7l3.08,2.5,3.08-2.5,7.958,7.631a1.12,1.12,0,0,1-.4.07H1.519a1.057,1.057,0,0,1-.373-.07Zm15.169-8.494L24.2,5.071a1.393,1.393,0,0,1,.07.443V18.957a1.789,1.789,0,0,1-.07.467Z" transform="translate(10.928 11.932)" fill="#fff"/>
</svg>
