<svg xmlns="http://www.w3.org/2000/svg" width="48" height="48" viewBox="0 0 48 48">
  <path id="Path_18603" data-name="Path 18603" d="M24,0A24,24,0,1,1,0,24,24,24,0,0,1,24,0Z" fill="#fff" opacity="0.15"/>
  <path id="Icon_awesome-phone-alt" data-name="Icon awesome-phone-alt" d="M23.209,16.883l-5.226-2.24a1.12,1.12,0,0,0-1.307.322l-2.314,2.828A17.3,17.3,0,0,1,6.094,9.524L8.922,7.21A1.117,1.117,0,0,0,9.244,5.9L7,.677A1.127,1.127,0,0,0,5.721.029L.868,1.149A1.12,1.12,0,0,0,0,2.24,21.649,21.649,0,0,0,21.651,23.891a1.12,1.12,0,0,0,1.092-.868l1.12-4.853a1.133,1.133,0,0,0-.654-1.288Z" transform="translate(12.055 12.055)" fill="#fff"/>
</svg>
