<svg xmlns="http://www.w3.org/2000/svg" width="70" height="70" viewBox="0 0 70 70">
  <g id="Group_9589" data-name="Group 9589" transform="translate(-416 -48)">
    <rect id="Rectangle_2304" data-name="Rectangle 2304" width="70" height="70" rx="16" transform="translate(416 48)" fill="#f6edee"/>
    <g id="noun_Complete_task_1854554" data-name="noun_Complete task_1854554" transform="translate(431.8 64.464)">
      <g id="Group_9599" data-name="Group 9599">
        <g id="Group_9598" data-name="Group 9598">
          <path id="Path_18573" data-name="Path 18573" d="M24.576,28.2a.678.678,0,0,1-.47-.192l-4.634-4.634a.665.665,0,0,1,.94-.94L24.576,26.6,35.619,15.56a12.578,12.578,0,1,0-11.043,18.6,12.291,12.291,0,0,0,4.793-.96c.066-.02.132-.053.2-.079a.863.863,0,0,0,.113-.053,12.565,12.565,0,0,0,7.474-11.486,12.434,12.434,0,0,0-.933-4.747L25.046,28.006A.678.678,0,0,1,24.576,28.2Z" transform="translate(-4.054 -3.041)" fill="#9c3e4d"/>
          <path id="Path_18574" data-name="Path 18574" d="M53.38,10.191l-4.733,4.733-.967.973a11.152,11.152,0,0,1,.6,1.271l1.006-1.006,5.031-5.031a.665.665,0,1,0-.94-.94Z" transform="translate(-16.115 -3.378)" fill="#9c3e4d"/>
          <path id="Path_18575" data-name="Path 18575" d="M1.324,37.073H23.833a1.328,1.328,0,0,0,1.324-1.324V31.638a13.638,13.638,0,0,1-4.634.8,13.9,13.9,0,0,1,0-27.805,13.638,13.638,0,0,1,4.634.8V1.324A1.328,1.328,0,0,0,23.833,0H7.944V5.958A1.992,1.992,0,0,1,5.958,7.944H0V35.749A1.328,1.328,0,0,0,1.324,37.073Z" fill="#9c3e4d"/>
          <path id="Path_18576" data-name="Path 18576" d="M7.1,6.435V1.41L1.41,7.1H6.435A.662.662,0,0,0,7.1,6.435Z" transform="translate(-0.477 -0.477)" fill="#9c3e4d"/>
        </g>
      </g>
    </g>
  </g>
</svg>
