<svg xmlns="http://www.w3.org/2000/svg" width="70" height="70" viewBox="0 0 70 70">
  <g id="Group_9567" data-name="Group 9567" transform="translate(-1281 -2099)">
    <rect id="Rectangle_2418" data-name="Rectangle 2418" width="70" height="70" rx="8" transform="translate(1281 2099)" fill="#f3e7e9" opacity="0.75"/>
    <g id="noun_decision_683442_1_" data-name="noun_decision_683442(1)" transform="translate(1287.891 2112.729)">
      <path id="Path_18549" data-name="Path 18549" d="M43.452,3.143a2,2,0,0,0-2-2H31.617a2,2,0,0,0-2,2V9.377a2,2,0,0,0,2,2.007h3.3v1.277a.783.783,0,0,0,.482.725.791.791,0,0,0,.3.062.779.779,0,0,0,.552-.231l1.867-1.834h3.338a2,2,0,0,0,2-2Zm-4.586,2.4L36.9,7.5l-.544.548a.775.775,0,0,1-1.1,0L34.7,7.5,34.2,6.987a.775.775,0,0,1,0-1.1h0a.775.775,0,0,1,1.1,0L35.8,6.4l1.97-1.957a.775.775,0,1,1,1.092,1.1Zm-3.449,35.8a.783.783,0,0,0,.853-.169l1.842-1.842h3.338a2,2,0,0,0,2-1.986V31.107a2,2,0,0,0-2-2H31.617a2,2,0,0,0-2,2v6.239a2,2,0,0,0,2,2h3.3v1.286A.783.783,0,0,0,35.416,41.343ZM34.7,35.454l-.507-.511a.775.775,0,0,1,0-1.1h0a.775.775,0,0,1,1.1,0l.507.511L37.773,32.4a.775.775,0,0,1,1.092,1.1L36.9,35.458l-.544.548a.775.775,0,0,1-1.1,0Zm8.748-18.325a2,2,0,0,0-2-2H31.617a2,2,0,0,0-2,2v6.206a2,2,0,0,0,2,2h3.3v1.294a.783.783,0,0,0,1.339.556l1.842-1.842h3.338a2,2,0,0,0,2.019-2.011Zm-5.114,3.8a.779.779,0,0,1-1.1,1.1l-.7-.7-.7.7a.779.779,0,1,1-1.1-1.1l.7-.7-.7-.7a.779.779,0,0,1,1.1-1.1l.7.7.7-.7a.779.779,0,0,1,1.1,1.1l-.7.7ZM12.789,13.98A3.387,3.387,0,0,1,16.16,10.21H17.4a.165.165,0,0,1,.128.062l2.06,2.592a.412.412,0,0,0,.643,0l2.06-2.592a.165.165,0,0,1,.132-.062h1.306a3.387,3.387,0,0,1,3.4,3.771l-.985,8.674A2.885,2.885,0,0,1,24.2,25.049L22.543,40.23A1.315,1.315,0,0,1,21.237,41.4H18.608A1.315,1.315,0,0,1,17.3,40.23l-1.648-15.2a2.885,2.885,0,0,1-1.871-2.378ZM19.955,1.144A4.005,4.005,0,1,1,15.95,5.15a4.005,4.005,0,0,1,4.005-4.005Z" fill="#881729"/>
    </g>
  </g>
</svg>
