<svg xmlns="http://www.w3.org/2000/svg" width="70" height="70" viewBox="0 0 70 70">
  <g id="Group_9589" data-name="Group 9589" transform="translate(-416 -48)">
    <rect id="Rectangle_2304" data-name="Rectangle 2304" width="70" height="70" rx="16" transform="translate(416 48)" fill="#f6edee"/>
    <g id="noun_reservation_3508044" transform="translate(428.467 60.467)">
      <rect id="Rectangle_2799" data-name="Rectangle 2799" width="5" height="1" transform="translate(17.533 20.533)" fill="#881729"/>
      <rect id="Rectangle_2800" data-name="Rectangle 2800" width="5" height="2" transform="translate(17.533 17.533)" fill="#881729"/>
      <rect id="Rectangle_2801" data-name="Rectangle 2801" width="5" height="1" transform="translate(17.533 23.533)" fill="#881729"/>
      <rect id="Rectangle_2802" data-name="Rectangle 2802" width="5" height="1" transform="translate(17.533 15.533)" fill="#881729"/>
      <rect id="Rectangle_2803" data-name="Rectangle 2803" width="5" height="2" transform="translate(10.533 11.533)" fill="#881729"/>
      <rect id="Rectangle_2804" data-name="Rectangle 2804" width="4" height="2" transform="translate(28.533 19.533)" fill="#881729"/>
      <path id="Path_18593" data-name="Path 18593" d="M39.637,3.674A.674.674,0,0,0,38.963,3H10.674A.674.674,0,0,0,10,3.674V7.041H39.637ZM12.694,5.694H11.347V4.347h1.347Zm2.694,0H14.041V4.347h1.347Zm2.694,0H16.736V4.347h1.347Zm2.694,0H19.43V4.347h1.347Zm9.43,0H23.471V4.347h6.736Zm8.083,0H31.554V4.347h6.736Z" transform="translate(-2.285)" fill="#881729"/>
      <rect id="Rectangle_2805" data-name="Rectangle 2805" width="8" height="1" transform="translate(26.533 14.533)" fill="#881729"/>
      <rect id="Rectangle_2806" data-name="Rectangle 2806" width="5" height="2" transform="translate(17.533 11.533)" fill="#881729"/>
      <rect id="Rectangle_2807" data-name="Rectangle 2807" width="1" height="2" transform="translate(26.533 11.533)" fill="#881729"/>
      <rect id="Rectangle_2808" data-name="Rectangle 2808" width="5" height="2" transform="translate(10.533 17.533)" fill="#881729"/>
      <path id="Path_18594" data-name="Path 18594" d="M34.8,59H22.674a.674.674,0,0,0-.674.674v.674H35.471v-.674A.674.674,0,0,0,34.8,59Z" transform="translate(-6.202 -18.281)" fill="#881729"/>
      <path id="Path_18595" data-name="Path 18595" d="M3,45.674a2.021,2.021,0,0,0,2.021,2.021H40.046a2.021,2.021,0,0,0,2.021-2.021V45H3Z" transform="translate(0 -13.711)" fill="#881729"/>
      <path id="Path_18596" data-name="Path 18596" d="M33.591,51H27.414l.395.395a2.3,2.3,0,0,1,0,3.253l-.395.394h6.177l-.393-.395a2.3,2.3,0,0,1,0-3.253Z" transform="translate(-7.97 -15.669)" fill="#881729"/>
      <rect id="Rectangle_2809" data-name="Rectangle 2809" width="5" height="1" transform="translate(10.533 15.533)" fill="#881729"/>
      <path id="Path_18597" data-name="Path 18597" d="M40.046,13H38.7V29.839a2.021,2.021,0,0,1-2.021,2.021H8.388a2.021,2.021,0,0,1-2.021-2.021V13H5.021A2.021,2.021,0,0,0,3,15.021V33.207H42.066V15.021A2.021,2.021,0,0,0,40.046,13Z" transform="translate(0 -3.264)" fill="#881729"/>
      <rect id="Rectangle_2810" data-name="Rectangle 2810" width="5" height="1" transform="translate(10.533 20.533)" fill="#881729"/>
      <path id="Path_18598" data-name="Path 18598" d="M10.674,29.86H38.963a.674.674,0,0,0,.674-.674V11H10V29.186A.674.674,0,0,0,10.674,29.86ZM27.513,13.021a.674.674,0,0,1,.674-.674H30.88a.674.674,0,0,1,.674.674v2.694h6.062a.674.674,0,0,1,.674.674v2.694a.674.674,0,0,1-.674.674h-9.43a.674.674,0,0,1-.674-.674V16.388h0Zm8.756,8.756v2.694a.674.674,0,0,1-.674.674H30.207a.674.674,0,0,1-.674-.674V21.777a.674.674,0,0,1,.674-.674H35.6A.674.674,0,0,1,36.269,21.777Zm-8.756,4.715H38.289v1.347H27.513ZM11.347,13.021a.674.674,0,0,1,.674-.674H25.492a.674.674,0,0,1,.674.674V27.839a.674.674,0,0,1-.674.674H12.021a.674.674,0,0,1-.674-.674Z" transform="translate(-2.285 -2.612)" fill="#881729"/>
      <rect id="Rectangle_2811" data-name="Rectangle 2811" width="5" height="1" transform="translate(10.533 23.533)" fill="#881729"/>
    </g>
  </g>
</svg>
