<svg xmlns="http://www.w3.org/2000/svg" width="90" height="90" viewBox="0 0 90 90">
  <g id="Path_18530" data-name="Path 18530" fill="none">
    <path d="M45,0A45,45,0,1,1,0,45,45,45,0,0,1,45,0Z" stroke="none"/>
    <path d="M 45 1.5 C 39.12687683105469 1.5 33.43022537231445 2.649925231933594 28.06829833984375 4.917823791503906 C 22.88852691650391 7.108688354492188 18.23629760742188 10.24541473388672 14.24085235595703 14.24085235595703 C 10.24541473388672 18.23629760742188 7.108688354492188 22.88852691650391 4.917823791503906 28.06829833984375 C 2.649925231933594 33.43022537231445 1.5 39.12687683105469 1.5 45 C 1.5 50.87312316894531 2.649925231933594 56.56977462768555 4.917823791503906 61.93170166015625 C 7.108688354492188 67.11147308349609 10.24541473388672 71.76370239257813 14.24085235595703 75.75914764404297 C 18.23629760742188 79.75458526611328 22.88852691650391 82.89131164550781 28.06829833984375 85.08217620849609 C 33.43022537231445 87.35007476806641 39.12687683105469 88.5 45 88.5 C 50.87312316894531 88.5 56.56977462768555 87.35007476806641 61.93170166015625 85.08217620849609 C 67.11147308349609 82.89131164550781 71.76370239257813 79.75458526611328 75.75914764404297 75.75914764404297 C 79.75458526611328 71.76370239257813 82.89131164550781 67.11147308349609 85.08217620849609 61.93170166015625 C 87.35007476806641 56.56977462768555 88.5 50.87312316894531 88.5 45 C 88.5 39.12687683105469 87.35007476806641 33.43022537231445 85.08217620849609 28.06829833984375 C 82.89131164550781 22.88852691650391 79.75458526611328 18.23629760742188 75.75914764404297 14.24085235595703 C 71.76370239257813 10.24541473388672 67.11147308349609 7.108688354492188 61.93170166015625 4.917823791503906 C 56.56977462768555 2.649925231933594 50.87312316894531 1.5 45 1.5 M 45 0 C 69.85281372070313 0 90 20.14718627929688 90 45 C 90 69.85281372070313 69.85281372070313 90 45 90 C 20.14718627929688 90 0 69.85281372070313 0 45 C 0 20.14718627929688 20.14718627929688 0 45 0 Z" stroke="none" fill="#dfdfdf"/>
  </g>
  <path id="Icon_awesome-smile-beam" data-name="Icon awesome-smile-beam" d="M23,.563a23,23,0,1,0,23,23A23,23,0,0,0,23,.563ZM10.387,20.539c.306-3.9,2.986-6.622,5.194-6.622s4.887,2.717,5.194,6.622a.739.739,0,0,1-1.382.417l-.881-1.577a3.469,3.469,0,0,0-2.921-2,3.469,3.469,0,0,0-2.921,2l-.881,1.577a.75.75,0,0,1-1.4-.417Zm23.26,11.389a13.854,13.854,0,0,1-21.294,0,1.485,1.485,0,0,1,2.281-1.9,10.9,10.9,0,0,0,16.731,0A1.485,1.485,0,0,1,33.647,31.928Zm.575-10.971-.881-1.577a3.469,3.469,0,0,0-2.921-2,3.469,3.469,0,0,0-2.921,2l-.881,1.577a.741.741,0,0,1-1.382-.417c.306-3.9,2.986-6.622,5.194-6.622s4.887,2.717,5.194,6.622A.75.75,0,0,1,34.222,20.956Z" transform="translate(22 21.438)" fill="#fff"/>
</svg>
