<svg xmlns="http://www.w3.org/2000/svg" width="1361.67" height="263" viewBox="0 0 1361.67 263">
  <g id="Line" transform="translate(10 13)">
    <path id="Path_18426" data-name="Path 18426" d="M-4551.2-11985s-312.533-225.668-653.866-136.067-577.067,36.267-665.6-80" transform="translate(5886.536 12221)" fill="none" stroke="gray" stroke-width="1" stroke-dasharray="5"/>
    <g id="Ellipse_531" data-name="Ellipse 531" transform="translate(1335.67 234)" fill="#fff" stroke="#707070" stroke-width="2">
      <ellipse cx="8" cy="8" rx="8" ry="8" stroke="none"/>
      <ellipse cx="8" cy="8" rx="7" ry="7" fill="none"/>
    </g>
    <g id="noun_complete_2433803" transform="translate(-10 -13)" opacity="0.72">
      <g id="Checkbox_circle" data-name="Checkbox circle">
        <path id="Path_18568" data-name="Path 18568" d="M12.083,21.167a1.416,1.416,0,0,1-1-.415L5.415,15.085a1.417,1.417,0,0,1,2-2l4.664,4.664,10.33-10.33a1.417,1.417,0,0,1,2,2L13.085,20.753A1.417,1.417,0,0,1,12.083,21.167Z" transform="translate(2.083 2.917)" fill="#881729"/>
        <path id="Path_18569" data-name="Path 18569" d="M17,34A17,17,0,1,1,34,17,17,17,0,0,1,17,34ZM17,2.833A14.167,14.167,0,1,0,31.167,17,14.167,14.167,0,0,0,17,2.833Z" fill="#881729"/>
      </g>
    </g>
  </g>
</svg>
