<svg id="OBJECTS" xmlns="http://www.w3.org/2000/svg" width="622.332" height="545.422" viewBox="0 0 622.332 545.422">
  <circle id="Ellipse_545" data-name="Ellipse 545" cx="32.737" cy="32.737" r="32.737" transform="translate(470.231 52.417) rotate(-45)" fill="#d5aeb4"/>
  <path id="Path_18774" data-name="Path 18774" d="M1324.083,120.144v4.529h-5.776v-4.328a23.978,23.978,0,0,1-10.486-2.857l3.1-7.016a19.617,19.617,0,0,0,9.427,2.611c2.734,0,3.716-.57,3.716-1.54,0-3.593-15.789-.693-15.789-11.345,0-4.621,3.346-8.472,10.039-9.427V86.31h5.776v4.363a21.332,21.332,0,0,1,8.283,2.372l-2.919,6.978A17.622,17.622,0,0,0,1321.5,97.9c-2.819,0-3.716.82-3.716,1.8,0,3.427,15.789.574,15.789,11.1C1333.587,115.2,1330.406,119.039,1324.083,120.144Z" transform="translate(-804.189 -53.073)" fill="#fff"/>
  <circle id="Ellipse_546" data-name="Ellipse 546" cx="19.832" cy="19.832" r="19.832" transform="translate(439.779 77.057)" fill="#d5aeb4"/>
  <path id="Path_18775" data-name="Path 18775" d="M1183.13,241.968v2.746h-3.466V242.1a14.6,14.6,0,0,1-6.354-1.729l1.879-4.236a11.88,11.88,0,0,0,5.711,1.579c1.656,0,2.249-.347,2.249-.94,0-2.176-9.566-.42-9.566-6.87,0-2.8,2.026-5.145,6.081-5.711v-2.7h3.466v2.646a12.877,12.877,0,0,1,5.006,1.433l-1.752,4.236a10.686,10.686,0,0,0-4.821-1.286c-1.71,0-2.253.5-2.253,1.09,0,2.076,9.57.347,9.57,6.724C1188.891,238.976,1186.962,241.3,1183.13,241.968Z" transform="translate(-721.477 -136.202)" fill="#fff"/>
  <circle id="Ellipse_547" data-name="Ellipse 547" cx="15.304" cy="15.304" r="15.304" transform="matrix(0.226, -0.974, 0.974, 0.226, 494.2, 121.074)" fill="#d5aeb4"/>
  <path id="Path_18776" data-name="Path 18776" d="M1322.868,277.162v2.118h-2.7v-2.022a11.127,11.127,0,0,1-4.9-1.336l1.448-3.281a9.172,9.172,0,0,0,4.409,1.221c1.278,0,1.737-.266,1.737-.724,0-1.679-7.386-.323-7.386-5.3,0-2.156,1.567-3.97,4.694-4.409V261.35h2.7v2.037a9.946,9.946,0,0,1,3.851,1.109l-1.355,3.262a8.264,8.264,0,0,0-3.72-.994c-1.317,0-1.737.385-1.737.843,0,1.6,7.386.266,7.386,5.187C1327.323,274.855,1325.833,276.65,1322.868,277.162Z" transform="translate(-808.77 -160.706)" fill="#fff"/>
  <rect id="Rectangle_2840" data-name="Rectangle 2840" width="2.237" height="16.039" transform="translate(448.698 42.919)" fill="#d5aeb4"/>
  <rect id="Rectangle_2841" data-name="Rectangle 2841" width="16.039" height="2.237" transform="translate(441.797 49.819)" fill="#d5aeb4"/>
  <rect id="Rectangle_2842" data-name="Rectangle 2842" width="3.362" height="24.091" transform="translate(467.537)" fill="#d5aeb4"/>
  <rect id="Rectangle_2843" data-name="Rectangle 2843" width="24.091" height="3.362" transform="translate(457.174 10.363)" fill="#d5aeb4"/>
  <rect id="Rectangle_2844" data-name="Rectangle 2844" width="2.545" height="18.242" transform="translate(543.901 123.191)" fill="#d5aeb4"/>
  <rect id="Rectangle_2845" data-name="Rectangle 2845" width="18.242" height="2.545" transform="translate(536.052 131.039)" fill="#d5aeb4"/>
  <circle id="Ellipse_548" data-name="Ellipse 548" cx="29.698" cy="29.698" r="29.698" transform="translate(201.566 60.279) rotate(-45)" fill="#d5aeb4" opacity="0.4"/>
  <circle id="Ellipse_549" data-name="Ellipse 549" cx="33.422" cy="33.422" r="33.422" transform="translate(281.017 385.116)" fill="#eedfe1" opacity="0.4"/>
  <path id="Path_18777" data-name="Path 18777" d="M553.5,1009.3h-1.051v-.963c1.587.027,3.2,0,4.775-.1l.054.959C556.039,1009.26,554.761,1009.3,553.5,1009.3Zm-5.892-.266c-1.606-.146-3.223-.354-4.806-.624l.162-.947c1.54.262,3.15.466,4.733.612Zm14.51-.308-.127-.955c1.571-.212,3.154-.485,4.706-.812l.2.94C565.32,1008.231,563.714,1008.509,562.116,1008.724Zm-24.061-1.3c-1.567-.385-3.135-.839-4.66-1.34l.3-.917c1.5.5,3.046.943,4.586,1.321Zm33.538-.716-.273-.924c1.521-.447,3.046-.955,4.529-1.517l.339.9C574.682,1005.74,573.138,1006.256,571.593,1006.71Zm-42.745-2.311c-1.486-.62-2.969-1.306-4.405-2.037l.439-.855c1.413.72,2.873,1.394,4.336,2Zm51.8-1.109-.408-.87c1.436-.67,2.861-1.406,4.236-2.183l.47.839c-1.39.782-2.842,1.529-4.3,2.207ZM520.191,1000c-1.375-.836-2.734-1.737-4.043-2.7l.558-.77c1.294.928,2.634,1.814,3.986,2.634Zm68.878-1.463-.535-.8c1.321-.882,2.622-1.825,3.851-2.8l.6.77c-1.236.97-2.557,1.925-3.9,2.823Zm-76.737-4.19c-1.236-1.036-2.445-2.13-3.6-3.25l.67-.693c1.155,1.109,2.33,2.187,3.543,3.2Zm84.374-1.791-.651-.712c1.155-1.067,2.31-2.191,3.4-3.346l.7.658C599.062,990.332,597.9,991.476,596.705,992.558Zm-91.321-4.972c-1.067-1.209-2.1-2.468-3.081-3.751l.77-.582c.959,1.263,1.976,2.507,3.023,3.693Zm97.968-2.076-.747-.608c1-1.232,1.964-2.519,2.865-3.82l.789.547c-.9,1.321-1.883,2.626-2.9,3.882Zm-103.806-5.649c-.874-1.356-1.706-2.757-2.472-4.167l.847-.458c.77,1.39,1.571,2.769,2.434,4.105Zm109.332-2.311-.832-.485c.8-1.371,1.564-2.784,2.261-4.209l.863.42c-.7,1.437-1.475,2.873-2.291,4.263Zm-113.949-6.188c-.659-1.467-1.267-2.981-1.81-4.49l.9-.327c.535,1.49,1.136,2.977,1.783,4.425Zm118.223-2.522-.9-.354c.589-1.475,1.124-2.992,1.594-4.505l.92.285c-.5,1.529-1.044,3.065-1.637,4.563Zm-121.5-6.581c-.427-1.541-.8-3.139-1.109-4.721l.944-.181c.3,1.54.674,3.119,1.094,4.644Zm124.385-2.665-.94-.216c.354-1.54.655-3.123.89-4.69l.955.142c-.262,1.575-.566,3.193-.924,4.733Zm-126.222-6.843c-.189-1.6-.32-3.223-.385-4.829l.959-.042c.069,1.587.2,3.185.385,4.76Zm127.666-2.738-.959-.069c.119-1.575.177-3.181.177-4.771h.963c-.019,1.594-.081,3.223-.2,4.821Zm-.77-5.484c0-1.59-.092-3.192-.223-4.771l.959-.081c.135,1.6.212,3.231.227,4.841ZM490.4,943.1l-.963-.031c.054-1.614.166-3.239.339-4.837l.955.1c-.223,1.552-.312,3.154-.385,4.744Zm125.54-8.087c-.254-1.567-.57-3.142-.94-4.683l.936-.223c.385,1.563.7,3.162.951,4.752Zm-124.5-1.406-.943-.173c.293-1.587.647-3.177,1.059-4.733l.932.25a39.875,39.875,0,0,0-1.117,4.64Zm122.213-7.887c-.489-1.506-1.04-3.015-1.641-4.486l.893-.362c.609,1.49,1.155,3.023,1.664,4.552Zm-119.825-1.352-.913-.316c.531-1.521,1.128-3.042,1.771-4.521l.882.385c-.647,1.456-1.232,2.954-1.752,4.452Zm116.2-7.479c-.709-1.413-1.483-2.819-2.311-4.182l.824-.493c.828,1.382,1.614,2.811,2.334,4.236Zm-112.4-1.275-.851-.451c.77-1.425,1.571-2.838,2.43-4.2l.816.512C499.177,912.825,498.372,914.215,497.629,915.621Zm107.495-6.889c-.917-1.294-1.895-2.572-2.9-3.789l.743-.616c1.024,1.24,2.014,2.534,2.946,3.851Zm-102.4-1.155-.77-.574c.959-1.294,1.979-2.569,3.035-3.785l.728.631a45.9,45.9,0,0,0-2.973,3.7Zm96.319-6.185c-1.1-1.155-2.257-2.257-3.439-3.316l.643-.716c1.2,1.071,2.372,2.2,3.489,3.366Zm-90.073-1.032-.678-.686c1.155-1.132,2.341-2.237,3.566-3.285l.624.732c-1.205,1-2.388,2.087-3.512,3.208ZM591.93,895c-1.259-.967-2.569-1.895-3.9-2.765l.528-.8c1.348.882,2.676,1.825,3.955,2.8Zm-75.709-.87-.566-.77c1.3-.947,2.646-1.86,4.013-2.7l.508.816C518.836,892.3,517.5,893.193,516.221,894.128Zm67.715-4.355c-1.394-.77-2.83-1.49-4.271-2.145l.385-.878c1.467.67,2.923,1.4,4.336,2.18Zm-59.608-.682-.447-.851c1.429-.747,2.9-1.444,4.378-2.076l.385.886C527.185,887.67,525.733,888.36,524.327,889.091Zm50.921-3.277c-1.49-.547-3.019-1.044-4.544-1.475l.262-.924c1.54.435,3.1.94,4.621,1.494Zm-42.16-.478-.308-.909c1.54-.52,3.081-.986,4.644-1.39l.239.932C536.126,884.366,534.59,884.829,533.088,885.337Zm32.975-2.118c-1.54-.312-3.135-.57-4.71-.77l.116-.955c1.6.2,3.212.462,4.787.77Zm-23.737-.266-.169-.947c1.579-.281,3.2-.508,4.8-.67l.1.959C545.488,882.456,543.882,882.676,542.326,882.953Zm14.268-.909c-1.587-.077-3.192-.092-4.775-.054l-.023-.963c1.6-.038,3.235-.023,4.844.054Z" transform="translate(-300.954 -541.738)" fill="#d5aeb4"/>
  <path id="Path_18778" data-name="Path 18778" d="M455.141,96.494v-.963a39.631,39.631,0,0,0,4.741-.323l.123.955a41.593,41.593,0,0,1-4.864.331Zm-4.86-.243a40.29,40.29,0,0,1-4.8-.824l.219-.94a39.283,39.283,0,0,0,4.683.8Zm14.495-1-.239-.936a39.67,39.67,0,0,0,4.529-1.444l.347.9a40.819,40.819,0,0,1-4.637,1.483Zm-23.96-1.225a40.9,40.9,0,0,1-4.459-1.949l.435-.859a39.664,39.664,0,0,0,4.355,1.9Zm33.022-2.287-.454-.847a39.319,39.319,0,0,0,4.047-2.488l.555.789a40.559,40.559,0,0,1-4.147,2.545Zm-41.679-2.149a41.061,41.061,0,0,1-3.851-2.958l.628-.728a40.274,40.274,0,0,0,3.778,2.884ZM481.8,86.158l-.643-.7a39.522,39.522,0,0,0,3.346-3.373l.724.635a41.454,41.454,0,0,1-3.427,3.454ZM424.8,83.239a40.665,40.665,0,0,1-3.058-3.785l.77-.558a39.874,39.874,0,0,0,2.984,3.7Zm63.409-4.379-.793-.543a39.814,39.814,0,0,0,2.453-4.074l.851.447a40.573,40.573,0,0,1-2.511,4.186Zm-69.059-3.516a40.194,40.194,0,0,1-2.068-4.4l.893-.354a39.664,39.664,0,0,0,2.018,4.3Zm73.553-5.083-.9-.339a38.969,38.969,0,0,0,1.406-4.544l.936.227a40.92,40.92,0,0,1-1.44,4.656Zm-77.134-3.939a40.9,40.9,0,0,1-.955-4.775l.955-.131a39.71,39.71,0,0,0,.932,4.66Zm79.445-5.5-.955-.116a40.529,40.529,0,0,0,.281-4.744c0-.478,0-.959-.027-1.436l.963-.035c0,.489.027.986.027,1.471A40.85,40.85,0,0,1,495.017,60.819ZM414.24,56.7v-.739a40.9,40.9,0,0,1,.209-4.132l.958.1a40.1,40.1,0,0,0-.2,4.028v.72Zm79.622-6.9a40.338,40.338,0,0,0-1.017-4.64l.924-.262a39.882,39.882,0,0,1,1.044,4.752Zm-77.7-2.561-.94-.212a40.323,40.323,0,0,1,1.352-4.679l.909.323a39.393,39.393,0,0,0-1.321,4.567Zm75.116-6.547a38.977,38.977,0,0,0-2.095-4.259l.824-.5a40.2,40.2,0,0,1,2.16,4.371ZM419.35,38.3l-.863-.431a41,41,0,0,1,2.434-4.217l.8.531A39.053,39.053,0,0,0,419.35,38.3Zm67.241-5.877a39.834,39.834,0,0,0-3.05-3.639l.693-.662a40.2,40.2,0,0,1,3.127,3.732Zm-62-2.045-.736-.62a40.928,40.928,0,0,1,3.366-3.52l.655.7a40.665,40.665,0,0,0-3.3,3.435Zm55.484-4.848a39.633,39.633,0,0,0-3.828-2.819l.524-.809a41.6,41.6,0,0,1,3.92,2.888Zm-48.545-1.6-.566-.77a40.778,40.778,0,0,1,4.1-2.619l.47.84a39.586,39.586,0,0,0-4,2.549Zm40.577-3.554a39.029,39.029,0,0,0-4.39-1.821l.316-.913a41.292,41.292,0,0,1,4.5,1.864Zm-32.3-1.063-.362-.89a40.59,40.59,0,0,1,4.621-1.567l.254.928a39.443,39.443,0,0,0-4.513,1.529Zm23.333-2.041a39.416,39.416,0,0,0-4.71-.716l.089-.959a40.39,40.39,0,0,1,4.81.736Zm-14.183-.462-.154-.951a40.7,40.7,0,0,1,4.848-.42l.027.963A40.435,40.435,0,0,0,448.96,16.811Z" transform="translate(-254.719 -9.494)" fill="#d5aeb4"/>
  <path id="Path_18779" data-name="Path 18779" d="M77.452,719.059A13.96,13.96,0,1,1,91.419,705.1a13.96,13.96,0,0,1-13.967,13.962Zm0-25.994A12.034,12.034,0,1,0,89.494,705.1a12.034,12.034,0,0,0-12.042-12.037Z" transform="translate(-39.047 -424.987)" fill="#d5aeb4"/>
  <rect id="Rectangle_2846" data-name="Rectangle 2846" width="400.107" height="295.813" transform="translate(105.223 114.75)" fill="#fff"/>
  <path id="Path_18780" data-name="Path 18780" d="M672.766,593.218H270.73V295.48H672.766Zm-400.111-1.926H670.841V297.405H272.655Z" transform="translate(-166.474 -181.693)" fill="#d5aeb4"/>
  <rect id="Rectangle_2847" data-name="Rectangle 2847" width="32.733" height="63.344" transform="translate(132.949 314.486)" fill="#881729" opacity="0.35"/>
  <rect id="Rectangle_2848" data-name="Rectangle 2848" width="32.733" height="94.933" transform="translate(184.937 282.897)" fill="#881729" opacity="0.35"/>
  <rect id="Rectangle_2849" data-name="Rectangle 2849" width="32.733" height="160.083" transform="translate(236.924 217.747)" fill="#881729" opacity="0.35"/>
  <rect id="Rectangle_2850" data-name="Rectangle 2850" width="32.733" height="113.829" transform="translate(288.912 264)" fill="#881729" opacity="0.35"/>
  <rect id="Rectangle_2851" data-name="Rectangle 2851" width="32.733" height="164.03" transform="translate(340.899 213.799)" fill="#881729" opacity="0.35"/>
  <rect id="Rectangle_2852" data-name="Rectangle 2852" width="32.733" height="155.462" transform="translate(392.887 222.368)" fill="#d5aeb4"/>
  <rect id="Rectangle_2853" data-name="Rectangle 2853" width="32.733" height="212.263" transform="translate(444.874 165.567)" fill="#d5aeb4"/>
  <path id="Path_18781" data-name="Path 18781" d="M369.474,662.915,368.6,661.2l54.672-27.815,56.381-76.8,51.618,54.032,53.07-53.07L635.8,563.8l51.653-59.3,1.452,1.267-52.323,60.071-51.548-6.262-53.8,53.8-51.391-53.8-55.3,75.316Z" transform="translate(-226.655 -310.221)" fill="#881729"/>
  <rect id="Rectangle_2854" data-name="Rectangle 2854" width="161.096" height="1.925" transform="translate(224.728 151.268)" fill="#881729"/>
  <rect id="Rectangle_2855" data-name="Rectangle 2855" width="52.342" height="1.925" transform="translate(279.107 172.448)" fill="#881729"/>
  <path id="Path_18782" data-name="Path 18782" d="M195.455,1076.792a83.95,83.95,0,0,0-5.734-49.411A77.488,77.488,0,0,0,157.25,991.49c7.128,9.038,8.965,21.442,9.685,33.211s.67,23.914,4.941,34.8,14.345,20.306,25.366,18.939Z" transform="translate(-96.694 -609.675)" fill="#881729"/>
  <path id="Path_18783" data-name="Path 18783" d="M254.2,1087.658a83.919,83.919,0,0,1,5.73-49.411A77.5,77.5,0,0,1,292.4,1002.36c-7.128,9.038-8.961,21.442-9.685,33.207s-.67,23.914-4.937,34.8-14.349,20.3-25.37,18.939Z" transform="translate(-155.209 -616.359)" fill="#881729"/>
  <path id="Path_18784" data-name="Path 18784" d="M212.885,1090.5a51.921,51.921,0,0,1-5.16-40.388c3.878-13.4,13.478-24.788,25.62-30.326-2.549,16.944,10.043,33.314,7.79,50.309-1.456,11-9.716,20.629-19.878,23.171Z" transform="translate(-126.524 -627.077)" fill="#d5aeb4"/>
  <path id="Path_18785" data-name="Path 18785" d="M234.046,1141.614a77.333,77.333,0,0,1,16.3-47.262,82.778,82.778,0,0,1,42.545-28.431c-9.573,7.378-14.094,19.158-17.279,30.549s-5.6,23.31-12.454,33.095-19.705,16.944-31.385,13.29Z" transform="translate(-142.517 -655.443)" fill="#881729"/>
  <path id="Path_18786" data-name="Path 18786" d="M165.2,1143.964a81.833,81.833,0,0,0-14.961-47.258,76,76,0,0,0-39.06-28.435c8.792,7.382,12.943,19.162,15.866,30.549s5.145,23.31,11.433,33.095,18.1,16.944,28.813,13.293Z" transform="translate(-68.365 -656.887)" fill="#881729"/>
  <path id="Path_18787" data-name="Path 18787" d="M210.887,1313.056H149.9L139.41,1249.55h81.963Z" transform="translate(-85.724 -768.358)" fill="#d5aeb4"/>
  <path id="Path_18788" data-name="Path 18788" d="M210.14,1312.63H147.925L137.2,1247.68h83.665Zm-60.991-1.444h59.766l10.232-62.062H138.9Z" transform="translate(-84.365 -767.208)" fill="#9192ff"/>
  <rect id="Rectangle_2856" data-name="Rectangle 2856" width="185.838" height="145.977" transform="translate(20.106 65.851)" fill="#fff"/>
  <path id="Path_18789" data-name="Path 18789" d="M237.473,316.4H49.71V168.5H237.473ZM51.635,314.477H235.548V170.425H51.635Z" transform="translate(-30.567 -103.612)" fill="#eedfe1"/>
  <rect id="Rectangle_2857" data-name="Rectangle 2857" width="41.913" height="23.733" transform="translate(45.352 89.765)" fill="#d5aeb4"/>
  <rect id="Rectangle_2858" data-name="Rectangle 2858" width="76.252" height="1.009" transform="translate(104.942 92.056)" fill="#9192ff"/>
  <rect id="Rectangle_2859" data-name="Rectangle 2859" width="76.252" height="1.009" transform="translate(104.942 101.129)" fill="#d1d1ff"/>
  <rect id="Rectangle_2860" data-name="Rectangle 2860" width="76.252" height="1.009" transform="translate(104.942 110.202)" fill="#d1d1ff"/>
  <rect id="Rectangle_2861" data-name="Rectangle 2861" width="8.753" height="27.118" transform="translate(65.054 160.853)" fill="#d5aeb4"/>
  <rect id="Rectangle_2862" data-name="Rectangle 2862" width="8.753" height="40.311" transform="translate(73.807 147.656)" fill="#881729"/>
  <rect id="Rectangle_2863" data-name="Rectangle 2863" width="8.753" height="44.705" transform="translate(97.709 143.096)" fill="#d5aeb4"/>
  <rect id="Rectangle_2864" data-name="Rectangle 2864" width="8.753" height="16.544" transform="translate(106.463 171.254)" fill="#881729"/>
  <rect id="Rectangle_2865" data-name="Rectangle 2865" width="8.753" height="30.958" transform="translate(130.365 156.975)" fill="#d5aeb4"/>
  <rect id="Rectangle_2866" data-name="Rectangle 2866" width="8.753" height="37.801" transform="translate(139.118 150.132)" fill="#881729"/>
  <rect id="Rectangle_2867" data-name="Rectangle 2867" width="8.753" height="21.588" transform="translate(163.021 166.144)" fill="#d5aeb4"/>
  <rect id="Rectangle_2868" data-name="Rectangle 2868" width="8.753" height="51.51" transform="translate(171.774 136.226)" fill="#881729"/>
  <path id="Path_18790" data-name="Path 18790" d="M253.628,402H118.88V347.63h1.009v53.358H253.628Z" transform="translate(-73.1 -213.76)" fill="#d5aeb4"/>
  <rect id="Rectangle_2869" data-name="Rectangle 2869" width="1.444" height="8.487" transform="translate(547.984 530.785) rotate(-49.96)" fill="#ebebff"/>
  <rect id="Rectangle_2870" data-name="Rectangle 2870" width="1.444" height="8.487" transform="translate(467.84 530.787) rotate(-49.96)" fill="#ebebff"/>
  <path id="Path_18814" data-name="Path 18814" d="M1289.68,591.7c1.263,4.032,6.677,1.987,7.1-1.806Z" transform="translate(-793.034 -362.728)" fill="#fff"/>
  <path id="Path_18824" data-name="Path 18824" d="M1474.626,523.97v26.44l-12.2,8.665h57.56V523.97Z" transform="translate(-899.259 -322.193)" fill="#fff"/>
  <path id="Path_18825" data-name="Path 18825" d="M1518.061,558.788H1458.51l13.224-9.4V522.72h46.327Zm-56.532-.963H1517.1V523.683h-44.4v26.186Z" transform="translate(-896.849 -321.424)" fill="#d5aeb4"/>
  <path id="Path_18826" data-name="Path 18826" d="M1539.559,560.95l-7.409-7.132,1.336-1.386,5.592,5.384,9.5-17.425,1.691.92Z" transform="translate(-942.131 -332.29)" fill="#d5aeb4"/>
  <rect id="Rectangle_2875" data-name="Rectangle 2875" width="622.332" height="1.444" transform="translate(0 543.978)" fill="#1b1b43"/>
</svg>
