<svg xmlns="http://www.w3.org/2000/svg" width="70" height="70" viewBox="0 0 70 70">
  <g id="Group_9589" data-name="Group 9589" transform="translate(-416 -48)">
    <rect id="Rectangle_2304" data-name="Rectangle 2304" width="70" height="70" rx="16" transform="translate(416 48)" fill="#f6edee"/>
  </g>
  <g id="noun_Search_176556" transform="translate(15 21)">
    <path id="Path_18570" data-name="Path 18570" d="M4.262,21.865a4.65,4.65,0,0,1,.994-.33,5.448,5.448,0,0,1,.955-.107c2.323,0,4.773,2.061,6.1,5.129a9.656,9.656,0,0,1,.78,5.255,4.617,4.617,0,0,1-2.23,3.534l1.22,2.705a2.7,2.7,0,0,1,.742.331l4.689,3.1s6.724-10.122,6.741-10.145a5.365,5.365,0,0,1,5.735-2.149c5.7,1.741,10.731,12.428,11.333,18.743l-17.292,0-.319-4.22,5.019-7.656a.479.479,0,1,0-.8-.525L20.422,46.881a2.7,2.7,0,0,1-3.646.618L9.827,42.9a2.7,2.7,0,0,1,.536-4.788l-.94-2.085a4.239,4.239,0,0,1-1.309.208A5.021,5.021,0,0,1,5.293,35.3a9.835,9.835,0,0,1-3.276-4.253C.341,27.165,1.4,23.29,4.262,21.865Zm.153,8.1c1.077,2.5,3.115,4.307,4.847,4.307a2.2,2.2,0,0,0,.877-.176,3.067,3.067,0,0,0,1.606-2.5,8.292,8.292,0,0,0-.686-4.5c-1.077-2.5-3.116-4.308-4.849-4.308a2.2,2.2,0,0,0-.874.175C3.536,23.74,3.114,26.945,4.415,29.962Z" transform="translate(-1.218 -19.28)" fill="#881729"/>
    <g id="Group_9597" data-name="Group 9597" transform="translate(3.812 0)">
      <path id="Path_18571" data-name="Path 18571" d="M46.357,26.9a5.748,5.748,0,1,1,2.018-7.874A5.748,5.748,0,0,1,46.357,26.9Z" transform="translate(-27.885 -16.206)" fill="#881729"/>
      <path id="Path_18572" data-name="Path 18572" d="M79.3,30.327a1.52,1.52,0,0,0-1.407-.566,1.027,1.027,0,0,0-.576.542.426.426,0,0,1-.752-.4,1.87,1.87,0,0,1,1.071-.955,2.281,2.281,0,0,1,2.257.767,6.634,6.634,0,0,1,1.589,2.723,7.527,7.527,0,0,1,.355,2.03.426.426,0,0,1-.415.437h-.011a.425.425,0,0,1-.425-.415,6.623,6.623,0,0,0-.317-1.8A5.764,5.764,0,0,0,79.3,30.327Z" transform="translate(-76.517 -23.663)" fill="#881729"/>
    </g>
  </g>
</svg>
