<svg xmlns="http://www.w3.org/2000/svg" width="70" height="70" viewBox="0 0 70 70">
  <g id="Group_9589" data-name="Group 9589" transform="translate(-416 -48)">
    <rect id="Rectangle_2304" data-name="Rectangle 2304" width="70" height="70" rx="16" transform="translate(416 48)" fill="#f6edee"/>
    <g id="noun_agreement_681897" transform="translate(430.1 61.776)">
      <path id="Path_18601" data-name="Path 18601" d="M35.684,14.754a6.3,6.3,0,0,0,2.247.4h1.814a.956.956,0,0,1,.956.956V29.6a.956.956,0,0,1-.952.947h-2.4a1.5,1.5,0,0,0-.943.336l-.547.445a.328.328,0,0,1-.458-.049l-12.848-15.6a1.053,1.053,0,0,0-1.328-.251l-5.887,3.3a4.341,4.341,0,0,1-3.851.19,1.312,1.312,0,0,1-.36-2.174l6.916-5.264a6.884,6.884,0,0,1,6.616-.952ZM2.056,30.546H4.129l1.446-1.769a3.7,3.7,0,0,1,6.418,1.365,3.7,3.7,0,0,1,2.571,2.551,3.693,3.693,0,0,1,2.158,1.684,3.725,3.725,0,0,1,2.065,1.057,3.83,3.83,0,0,1,.543,4.588l-.215.377a2.114,2.114,0,0,0,3.3-2.126.045.045,0,0,1,.077-.045l.158.154a2.182,2.182,0,0,0,2.749.275,2.118,2.118,0,0,0,.867-2.142.045.045,0,0,1,.077-.045l.158.154a2.182,2.182,0,0,0,2.745.275,2.118,2.118,0,0,0,.871-2.142.045.045,0,0,1,.077-.045l.178.17a2.162,2.162,0,0,0,2.608.336,2.122,2.122,0,0,0,.49-3.239l-1.3-1.563L21.71,17.666a.344.344,0,0,0-.437-.081l-5,2.8a6.276,6.276,0,0,1-5.264.4,3.365,3.365,0,0,1-2.049-2.025,3.786,3.786,0,0,1,.34-2.879.482.482,0,0,0-.4-.721H2.056a.956.956,0,0,0-.956.956V29.607a.956.956,0,0,0,.956.939Zm9.718,7.924.121.093a1.806,1.806,0,0,0,1.944.182.1.1,0,0,1,.154.077,1.8,1.8,0,0,0,.668,1.13l.077.061a1.822,1.822,0,0,0,2.7-.53l.263-.462a1.879,1.879,0,0,0-.316-2.32,1.814,1.814,0,0,0-1.968-.308.053.053,0,0,1-.077-.053,1.794,1.794,0,0,0-2.429-1.769c-.267.049-.211-.186-.211-.186a1.79,1.79,0,0,0-2.523-2.247.137.137,0,0,1-.174-.158,1.778,1.778,0,0,0-.624-2.4,1.85,1.85,0,0,0-2.361.474L5.619,31.777A1.782,1.782,0,0,0,5.9,34.3l.215.166a1.778,1.778,0,0,0,1.988.142.085.085,0,0,1,.13.093,1.786,1.786,0,0,0,.648,1.749l.174.138a1.79,1.79,0,0,0,1.923.186.093.093,0,0,1,.134.093,1.794,1.794,0,0,0,.66,1.608ZM4.5,6.656,9,9.9a.972.972,0,0,0,1.539-.81V7.539H31.258V9.114a.972.972,0,0,0,1.539.81L37.3,6.684a.972.972,0,0,0,0-1.579L32.8,1.866a.972.972,0,0,0-1.539.81V3.822H10.543V2.651A.972.972,0,0,0,9,1.842L4.5,5.081a.972.972,0,0,0,0,1.579Z" transform="translate(0 0)" fill="#9c3e4d"/>
    </g>
  </g>
</svg>
