<svg xmlns="http://www.w3.org/2000/svg" width="90" height="90" viewBox="0 0 90 90">
  <g id="Path_18530" data-name="Path 18530" fill="none">
    <path d="M45,0A45,45,0,1,1,0,45,45,45,0,0,1,45,0Z" stroke="none"/>
    <path d="M 45 1.5 C 39.12687683105469 1.5 33.43022537231445 2.649925231933594 28.06829833984375 4.917823791503906 C 22.88852691650391 7.108688354492188 18.23629760742188 10.24541473388672 14.24085235595703 14.24085235595703 C 10.24541473388672 18.23629760742188 7.108688354492188 22.88852691650391 4.917823791503906 28.06829833984375 C 2.649925231933594 33.43022537231445 1.5 39.12687683105469 1.5 45 C 1.5 50.87312316894531 2.649925231933594 56.56977462768555 4.917823791503906 61.93170166015625 C 7.108688354492188 67.11147308349609 10.24541473388672 71.76370239257813 14.24085235595703 75.75914764404297 C 18.23629760742188 79.75458526611328 22.88852691650391 82.89131164550781 28.06829833984375 85.08217620849609 C 33.43022537231445 87.35007476806641 39.12687683105469 88.5 45 88.5 C 50.87312316894531 88.5 56.56977462768555 87.35007476806641 61.93170166015625 85.08217620849609 C 67.11147308349609 82.89131164550781 71.76370239257813 79.75458526611328 75.75914764404297 75.75914764404297 C 79.75458526611328 71.76370239257813 82.89131164550781 67.11147308349609 85.08217620849609 61.93170166015625 C 87.35007476806641 56.56977462768555 88.5 50.87312316894531 88.5 45 C 88.5 39.12687683105469 87.35007476806641 33.43022537231445 85.08217620849609 28.06829833984375 C 82.89131164550781 22.88852691650391 79.75458526611328 18.23629760742188 75.75914764404297 14.24085235595703 C 71.76370239257813 10.24541473388672 67.11147308349609 7.108688354492188 61.93170166015625 4.917823791503906 C 56.56977462768555 2.649925231933594 50.87312316894531 1.5 45 1.5 M 45 0 C 69.85281372070313 0 90 20.14718627929688 90 45 C 90 69.85281372070313 69.85281372070313 90 45 90 C 20.14718627929688 90 0 69.85281372070313 0 45 C 0 20.14718627929688 20.14718627929688 0 45 0 Z" stroke="none" fill="#dfdfdf"/>
  </g>
  <g id="noun_team_3858077" transform="translate(266.109 -146.125)">
    <g id="Group_9561" data-name="Group 9561" transform="translate(-242.51 175.62)">
      <path id="Path_18531" data-name="Path 18531" d="M47,44.465a7.923,7.923,0,1,0-7.919-7.926A7.92,7.92,0,0,0,47,44.465Z" transform="translate(-25.599 -28.62)" fill="#fff"/>
      <path id="Path_18532" data-name="Path 18532" d="M29.9,46.009a4.54,4.54,0,1,0-4.54-4.54A4.537,4.537,0,0,0,29.9,46.009Z" transform="translate(-21.828 -30.904)" fill="#fff"/>
      <path id="Path_18533" data-name="Path 18533" d="M34.218,52.621A8.066,8.066,0,0,0,20.49,58.371h8.18A14.122,14.122,0,0,1,34.218,52.621Z" transform="translate(-20.49 -34.578)" fill="#fff"/>
      <path id="Path_18534" data-name="Path 18534" d="M66.66,46.009a4.54,4.54,0,1,0-4.54-4.54A4.537,4.537,0,0,0,66.66,46.009Z" transform="translate(-31.931 -30.904)" fill="#fff"/>
      <path id="Path_18535" data-name="Path 18535" d="M66.128,58.371h8.18A8.066,8.066,0,0,0,60.58,52.621,14.122,14.122,0,0,1,66.128,58.371Z" transform="translate(-31.508 -34.578)" fill="#fff"/>
      <path id="Path_18536" data-name="Path 18536" d="M57.16,59.553A14.149,14.149,0,0,0,51.62,53.8,14.091,14.091,0,0,0,30.59,66.043H58.763A14.248,14.248,0,0,0,57.16,59.553Z" transform="translate(-23.266 -35.034)" fill="#fff"/>
    </g>
  </g>
</svg>
