<svg xmlns="http://www.w3.org/2000/svg" width="70" height="70" viewBox="0 0 70 70">
  <rect id="Rectangle_2418" data-name="Rectangle 2418" width="70" height="70" rx="8" fill="#f3e7e9" opacity="0.75"/>
  <g id="noun_solution_2998521" transform="translate(11.667 10.825)">
    <g id="Group_9574" data-name="Group 9574" transform="translate(2.5 4)">
      <path id="Path_18541" data-name="Path 18541" d="M47.867,11.544a1.666,1.666,0,0,0,1.667-1.667V5.667a1.667,1.667,0,1,0-3.333,0v4.21A1.666,1.666,0,0,0,47.867,11.544Z" transform="translate(-27.034 -4)" fill="#881729"/>
      <path id="Path_18542" data-name="Path 18542" d="M21.616,21.435a1.7,1.7,0,0,0-.482-1.184l-2.982-2.982a1.668,1.668,0,0,0-2.368,0,1.695,1.695,0,0,0,0,2.368l2.982,2.982a1.667,1.667,0,0,0,2.851-1.184Z" transform="translate(-9.686 -11.172)" fill="#881729"/>
      <path id="Path_18543" data-name="Path 18543" d="M8.377,47.7H4.167a1.667,1.667,0,0,0,0,3.333h4.21a1.667,1.667,0,0,0,0-3.333Z" transform="translate(-2.5 -28.534)" fill="#881729"/>
      <path id="Path_18544" data-name="Path 18544" d="M86.177,47.7h-4.21a1.667,1.667,0,0,0,0,3.333h4.21a1.667,1.667,0,0,0,0-3.333Z" transform="translate(-46.178 -28.534)" fill="#881729"/>
      <path id="Path_18545" data-name="Path 18545" d="M76.616,18.453a1.7,1.7,0,0,0-.482-1.184,1.668,1.668,0,0,0-2.368,0l-2.982,2.982a1.675,1.675,0,0,0,2.368,2.368l2.982-2.982A1.7,1.7,0,0,0,76.616,18.453Z" transform="translate(-40.564 -11.172)" fill="#881729"/>
      <path id="Path_18546" data-name="Path 18546" d="M43.136,30.337A10.37,10.37,0,0,0,36.689,28.1a9.2,9.2,0,0,0-2.456.307,10.3,10.3,0,0,0-3.816,18.2,1.989,1.989,0,0,1,.7,1.579V49.5H42.3V48.1a1.911,1.911,0,0,1,.658-1.491,10.22,10.22,0,0,0,4.079-8.158A10.1,10.1,0,0,0,43.136,30.337Zm-2.193,7.281L36.821,41.74a1.377,1.377,0,0,1-1.93,0l-2.368-2.281A1.4,1.4,0,1,1,34.5,37.486l1.36,1.36,3.158-3.158a1.431,1.431,0,0,1,1.974,0A1.338,1.338,0,0,1,40.943,37.617Z" transform="translate(-15.9 -17.53)" fill="#881729"/>
      <path id="Path_18547" data-name="Path 18547" d="M37.3,85.305A1.479,1.479,0,0,0,38.791,86.8h1.886l.175.482a2.093,2.093,0,0,0,4.035,0l.175-.482h1.886a1.479,1.479,0,0,0,1.491-1.491V83.2H37.3Z" transform="translate(-22.037 -48.464)" fill="#881729"/>
    </g>
  </g>
</svg>
