<svg xmlns="http://www.w3.org/2000/svg" width="70" height="70" viewBox="0 0 70 70">
  <g id="Group_9589" data-name="Group 9589" transform="translate(-416 -48)">
    <rect id="Rectangle_2304" data-name="Rectangle 2304" width="70" height="70" rx="16" transform="translate(416 48)" fill="#f6edee"/>
    <g id="noun_archive_2576705" transform="translate(428.933 60.466)">
      <g id="Mail_Box" data-name="Mail Box" transform="translate(3 2)">
        <path id="Path_18599" data-name="Path 18599" d="M16.2,2H7.4A4.4,4.4,0,0,0,3,6.4V38.668a4.4,4.4,0,0,0,4.4,4.4h8.8a4.4,4.4,0,0,0,4.4-4.4V6.4A4.4,4.4,0,0,0,16.2,2Zm-5.867,8.8a1.467,1.467,0,0,1,2.933,0V24a1.467,1.467,0,1,1-2.933,0Zm2.933,26.4H10.334a1.467,1.467,0,0,1,0-2.933h2.933a1.467,1.467,0,0,1,0,2.933Zm0-4.4H10.334a1.467,1.467,0,0,1,0-2.933h2.933a1.467,1.467,0,0,1,0,2.933Z" transform="translate(-3 -2)" fill="#9c3e4d"/>
        <path id="Path_18600" data-name="Path 18600" d="M30.2,2H21.4A4.4,4.4,0,0,0,17,6.4V38.668a4.4,4.4,0,0,0,4.4,4.4h8.8a4.4,4.4,0,0,0,4.4-4.4V6.4A4.4,4.4,0,0,0,30.2,2Zm-5.867,8.8a1.467,1.467,0,1,1,2.933,0V24a1.467,1.467,0,1,1-2.933,0Zm2.933,26.4H24.334a1.467,1.467,0,1,1,0-2.933h2.933a1.467,1.467,0,0,1,0,2.933Zm0-4.4H24.334a1.467,1.467,0,0,1,0-2.933h2.933a1.467,1.467,0,0,1,0,2.933Z" transform="translate(3.534 -2)" fill="#9c3e4d"/>
      </g>
    </g>
  </g>
</svg>
