<svg xmlns="http://www.w3.org/2000/svg" width="427.333" height="408.857" viewBox="0 0 427.333 408.857">
  <g id="Vector" transform="translate(0.001 0.024)">
    <g id="Background_Complete" data-name="Background Complete" transform="translate(8.854 -0.024)">
      <rect id="Rectangle_2813" data-name="Rectangle 2813" width="7.431" height="55.636" transform="translate(48.472 367.965) rotate(-90)" fill="#e0e0e0"/>
      <path id="Path_18604" data-name="Path 18604" d="M65.676,365.12c.188,0,.346,1.561.346,3.479s-.158,3.488-.346,3.488-.356-1.561-.356-3.488S65.478,365.12,65.676,365.12Z" transform="translate(-9.624 -4.28)" fill="#fafafa"/>
      <path id="Path_18605" data-name="Path 18605" d="M64.446,365c.2,0,.346,1.552.346,3.478s-.148,3.479-.346,3.479-.346-1.552-.346-3.479S64.248,365,64.446,365Z" transform="translate(-9.61 -4.279)" fill="#fafafa"/>
      <path id="Path_18606" data-name="Path 18606" d="M110,365.12c.2,0,.356,1.561.356,3.479s-.158,3.488-.356,3.488-.346-1.561-.346-3.488S109.759,365.12,110,365.12Z" transform="translate(-10.147 -4.28)" fill="#fafafa"/>
      <path id="Path_18607" data-name="Path 18607" d="M108.726,365c.188,0,.346,1.552.346,3.478s-.158,3.479-.346,3.479-.356-1.552-.356-3.479S108.528,365,108.726,365Z" transform="translate(-10.132 -4.279)" fill="#fafafa"/>
      <path id="Path_18608" data-name="Path 18608" d="M101.03,368.8c0,.188-6.374.346-14.23.346s-14.23-.158-14.23-.346,6.374-.356,14.23-.356S101.03,368.6,101.03,368.8Z" transform="translate(-9.71 -4.32)" fill="#fafafa"/>
      <rect id="Rectangle_2814" data-name="Rectangle 2814" width="14.863" height="55.636" transform="translate(48.225 408.857) rotate(-90)" fill="#e0e0e0"/>
      <path id="Path_18609" data-name="Path 18609" d="M114.11,409.368a2.182,2.182,0,0,1-.3.178c-.208.109-.514.247-.929.425a16.483,16.483,0,0,1-3.775,1.077,9.8,9.8,0,0,1-6.117-.87,8.074,8.074,0,0,1-2.905-2.639,6.127,6.127,0,0,1-.988-4.279,4.516,4.516,0,0,1,.988-2.214A2.965,2.965,0,0,1,102.469,400a3.37,3.37,0,0,1,2.362,1.275,4.605,4.605,0,0,1,1.077,2.53,6.779,6.779,0,0,1-1.917,5.277,8.489,8.489,0,0,1-5.346,2.609,14.072,14.072,0,0,1-6.206-.771,11.345,11.345,0,0,1-5.425-3.647,5.929,5.929,0,0,1-1.265-3.2,4.18,4.18,0,0,1,1.186-3.34,2.707,2.707,0,0,1,1.739-.771,3.221,3.221,0,0,1,1.818.514,4.822,4.822,0,0,1,2.046,2.965,6.977,6.977,0,0,1-2.194,6.542,10.93,10.93,0,0,1-6.265,2.55,15.426,15.426,0,0,1-6.493-.632,8.973,8.973,0,0,1-4.941-3.844,6.582,6.582,0,0,1-.613-5.929,3.093,3.093,0,0,1,2.263-1.917,3.6,3.6,0,0,1,2.807.672,4.654,4.654,0,0,1,1.295,5.05,8.627,8.627,0,0,1-2.807,3.953,12.619,12.619,0,0,1-7.629,2.965,12.185,12.185,0,0,1-6.008-1.374,11.949,11.949,0,0,1-3.152-2.332c-.306-.336-.534-.593-.672-.781a1.177,1.177,0,0,1-.2-.287,14.232,14.232,0,0,0,4.141,3.152A11.987,11.987,0,0,0,68,412.451a12.294,12.294,0,0,0,7.333-2.965,8.252,8.252,0,0,0,2.609-3.726,4.121,4.121,0,0,0-1.166-4.378,2.965,2.965,0,0,0-2.342-.543,2.451,2.451,0,0,0-1.818,1.571,5.929,5.929,0,0,0,.6,5.327,8.34,8.34,0,0,0,4.546,3.548,14.823,14.823,0,0,0,6.206.583,10.277,10.277,0,0,0,5.87-2.382,6.315,6.315,0,0,0,1.976-5.87,4.141,4.141,0,0,0-1.729-2.569,2.145,2.145,0,0,0-2.718.168A3.459,3.459,0,0,0,86.381,404a5.277,5.277,0,0,0,1.117,2.836,10.8,10.8,0,0,0,5.089,3.429,13.49,13.49,0,0,0,5.929.761,7.906,7.906,0,0,0,4.941-2.392,6.2,6.2,0,0,0,1.8-4.783,3.55,3.55,0,0,0-2.886-3.33,2.421,2.421,0,0,0-1.976.87,3.953,3.953,0,0,0-.919,1.976,5.643,5.643,0,0,0,.9,3.953,7.679,7.679,0,0,0,2.718,2.53,9.714,9.714,0,0,0,5.929.988,17.668,17.668,0,0,0,3.755-.988C113.675,409.536,114.1,409.348,114.11,409.368Z" transform="translate(-9.537 -4.691)" fill="#fafafa"/>
      <rect id="Rectangle_2815" data-name="Rectangle 2815" width="25.792" height="50.666" transform="translate(53.195 393.964) rotate(-90)" fill="#ebebeb"/>
      <path id="Path_18610" data-name="Path 18610" d="M71.306,373.44c.188,0,.346,5.593.346,12.481s-.158,12.481-.346,12.481S71,392.819,71,385.921,71.109,373.44,71.306,373.44Z" transform="translate(-9.691 -4.378)" fill="#e0e0e0"/>
      <path id="Path_18611" data-name="Path 18611" d="M75.2,373.12c.188,0,.346,5.514.346,12.323s-.158,12.323-.346,12.323-.356-5.524-.356-12.323S75,373.12,75.2,373.12Z" transform="translate(-9.737 -4.375)" fill="#e0e0e0"/>
      <path id="Path_18612" data-name="Path 18612" d="M108.266,372.28c.188,0,.346,5.811.346,12.975s-.158,12.975-.346,12.975-.356-5.811-.356-12.975S108.068,372.28,108.266,372.28Z" transform="translate(-10.126 -4.365)" fill="#e0e0e0"/>
      <path id="Path_18613" data-name="Path 18613" d="M103.7,372.63c.188,0,.346,5.662.346,12.639s-.158,12.649-.346,12.649-.356-5.662-.356-12.649S103.5,372.63,103.7,372.63Z" transform="translate(-10.073 -4.369)" fill="#e0e0e0"/>
      <path id="Path_18614" data-name="Path 18614" d="M379.615,315.539c5.257-2.708,11.434-3.063,17.274-2.095,3.133.514,6.394,1.453,8.528,3.8s2.53,6.493.089,8.518c-1.463,1.206-3.488,1.383-5.386,1.364-4.565-.049-9.625-.86-13.272,1.887-2.085,1.571-3.469,4.17-5.929,4.941s-5.178-.682-6.463-2.876a10.03,10.03,0,0,1-.731-7.421,11.315,11.315,0,0,1,5.89-8.123Z" transform="translate(-13.255 -3.665)" fill="#ebebeb"/>
      <path id="Path_18615" data-name="Path 18615" d="M367.474,291.492c3.212,4.585,9.457,3.073,12.353.267s4.121-6.858,5.228-10.722c2.55-8.894,5.109-18.124,3.222-27.126a15.011,15.011,0,0,0-3.469-7.372,7.906,7.906,0,0,0-7.451-2.48c-3.152.83-5.109,3.953-6.522,6.848a64.669,64.669,0,0,0-6.394,27.739c0,4.477.514,9.161,3.034,12.847" transform="translate(-13.15 -2.852)" fill="#ebebeb"/>
      <path id="Path_18616" data-name="Path 18616" d="M358.149,298.25c3.488-4.131,4.15-10.169,2.6-15.357s-5.06-9.6-9.1-13.193a48.817,48.817,0,0,0-16.3-9.615,17.3,17.3,0,0,0-7.323-1.245,7.708,7.708,0,0,0-6.147,3.716c-1.719,3.271-.069,7.244,1.71,10.475a124.391,124.391,0,0,0,10.693,16.3c3.212,4.131,6.917,8.212,11.77,10.08s9.971,1.65,12.56-1.739" transform="translate(-12.64 -3.027)" fill="#ebebeb"/>
      <path id="Path_18617" data-name="Path 18617" d="M367.289,361.587a10.32,10.32,0,0,0,.3-2.085c.148-1.522.326-3.429.553-5.692a83.447,83.447,0,0,1,1.275-8.341,64.236,64.236,0,0,1,3.034-9.882,36.565,36.565,0,0,1,5.03-8.894,18.835,18.835,0,0,1,6.354-5.277,17.668,17.668,0,0,1,5.356-1.67,9.763,9.763,0,0,0,2.075-.306,10.552,10.552,0,0,0-2.115,0,16.186,16.186,0,0,0-5.574,1.453,18.717,18.717,0,0,0-6.71,5.336,35.319,35.319,0,0,0-5.218,9.092,60.329,60.329,0,0,0-2.965,10,72.48,72.48,0,0,0-1.117,8.449c-.178,2.421-.247,4.378-.277,5.732a10.08,10.08,0,0,0,0,2.085Z" transform="translate(-13.183 -3.741)" fill="#e0e0e0"/>
      <path id="Path_18618" data-name="Path 18618" d="M367.685,356.538a4.125,4.125,0,0,0,.059-.988v-2.767c0-2.4,0-5.87.119-10.159.217-8.588.988-17.788,2.382-30.832,1.354-12.244,3.162-26.484,5.079-35.744.405-2.1.82-4,1.216-5.662s.682-3.093.988-4.259.474-1.976.642-2.688a5.558,5.558,0,0,0,.178-.988,3.526,3.526,0,0,0-.336.9c-.217.7-.484,1.571-.81,2.648s-.721,2.579-1.136,4.239-.889,3.538-1.334,5.643a313.261,313.261,0,0,0-5.346,33.164c-1.423,13.044-2.065,24.923-2.125,33.52-.049,4.3,0,7.787.148,10.188.069,1.117.128,2.036.168,2.767a4.219,4.219,0,0,0,.109,1.018Z" transform="translate(-13.183 -3.07)" fill="#e0e0e0"/>
      <path id="Path_18619" data-name="Path 18619" d="M367.385,333.715a18.524,18.524,0,0,0,0-2.9c-.109-1.858-.366-4.536-.889-7.827a102.983,102.983,0,0,0-2.54-11.4,93.816,93.816,0,0,0-4.773-13.489,71.82,71.82,0,0,0-14-21.81,34.669,34.669,0,0,0-3.3-3.063c-.5-.425-.988-.86-1.4-1.2s-.889-.6-1.275-.88a16.709,16.709,0,0,0-2.441-1.551c-.138.188,3.449,2.293,7.975,7.105a75.972,75.972,0,0,1,13.657,21.741,106.439,106.439,0,0,1,4.793,13.37,116.172,116.172,0,0,1,2.718,11.3c.593,3.251.939,5.929,1.146,7.748A17.9,17.9,0,0,0,367.385,333.715Z" transform="translate(-12.824 -3.154)" fill="#e0e0e0"/>
      <path id="Path_18620" data-name="Path 18620" d="M343.79,371.85l2.3,31.445h40.388l2.3-31.445Z" transform="translate(-12.907 -4.36)" fill="#ebebeb"/>
      <rect id="Rectangle_2816" data-name="Rectangle 2816" width="53.709" height="12.392" transform="translate(326.98 355.088)" fill="#ebebeb"/>
      <path id="Path_18621" data-name="Path 18621" d="M339.84,402.45v3.439h52.83V402.45Z" transform="translate(-12.86 -4.72)" fill="#e0e0e0"/>
      <path id="Path_18622" data-name="Path 18622" d="M344.87,411.588,342.4,405.54h48.373l-2.886,6.048Z" transform="translate(-12.891 -4.757)" fill="#e0e0e0"/>
      <path id="Path_18623" data-name="Path 18623" d="M388.04,382.2a2.258,2.258,0,0,1-.188.287c-.168.208-.366.474-.6.8l-2.362,2.965-.1.128-.1-.138-5.781-7.995h.326l-5.692,8.054-.178.257-.2-.237-6.749-8.034h.385c-.119.138-.237.306-.366.464l-6.038,7.57-.208.247-.178-.257-5.7-8.064h.336l-7.016,7.985-.119.148-.1-.158-2.194-3.7c-.237-.4-.415-.721-.563-.988a1.532,1.532,0,0,1-.178-.356,1.978,1.978,0,0,1,.237.316l.623.988,2.3,3.617h-.217l6.917-8.084.168-.208.158.217,5.751,8.024h-.4l6.028-7.58c.128-.158.257-.316.366-.464l.2-.247.2.237,6.73,8.054h-.376l5.751-8.014.168-.237.158.237,5.662,8.084H384.7c1.038-1.235,1.848-2.224,2.451-2.965.267-.306.484-.553.652-.761S388.03,382.187,388.04,382.2Z" transform="translate(-12.915 -4.429)" fill="#f5f5f5"/>
      <path id="Path_18624" data-name="Path 18624" d="M389.351,371.637c0,.138-10.129.247-22.61.247s-22.61-.109-22.61-.247,10.119-.257,22.61-.257S389.351,371.489,389.351,371.637Z" transform="translate(-12.911 -4.354)" fill="#f5f5f5"/>
      <path id="Path_18625" data-name="Path 18625" d="M155.816,39.929a.89.89,0,0,1-.237-.069l-.652-.257-2.49-.988L143.3,34.662,113.254,21.568l-1.048-.455h.217L82.985,33.694l-8.894,3.745-2.431.988a6.126,6.126,0,0,1-.86.316,6.4,6.4,0,0,1,.82-.415l2.342-1.087,8.894-3.894L112.206,20.6h.109l.109.049,1.048.455,29.982,13.232,9.062,4.071L155,39.495l.632.316a.84.84,0,0,1,.188.119Z" transform="translate(-9.689 -0.219)" fill="#e0e0e0"/>
      <rect id="Rectangle_2817" data-name="Rectangle 2817" width="192.988" height="144.506" transform="translate(0 35.392)" fill="#e0e0e0"/>
      <rect id="Rectangle_2818" data-name="Rectangle 2818" width="180.22" height="131.847" transform="translate(6.749 42.112)" fill="#fafafa"/>
      <path id="Path_18626" data-name="Path 18626" d="M56.07,100.88s.188,22.136,1.314,28.885l27.759-1.314s-2.431-21.741-1.492-27.571Z" transform="translate(-9.515 -1.166)" fill="#e0e0e0"/>
      <path id="Path_18627" data-name="Path 18627" d="M69.836,104.049h.405a6.571,6.571,0,0,1,1.156.059,5.732,5.732,0,0,1,3.686,2.036,6.749,6.749,0,0,1,1.324,2.678,6.443,6.443,0,0,1-.287,3.429,9.822,9.822,0,0,1-.781,1.71,16.908,16.908,0,0,0-.889,1.739,14.961,14.961,0,0,0-1.127,3.953v.1H67.514v-.109a8.182,8.182,0,0,0-1.334-3.785c-.336-.573-.7-1.107-.988-1.65a14.615,14.615,0,0,1-.988-1.591,5.366,5.366,0,0,1-.435-3.38,7.2,7.2,0,0,1,1.077-2.767,5.277,5.277,0,0,1,1.8-1.621,6.661,6.661,0,0,1,1.71-.662A8.28,8.28,0,0,1,69.491,104h0a9.662,9.662,0,0,0-1.117.227,7.174,7.174,0,0,0-1.67.672,5.435,5.435,0,0,0-1.749,1.611,7.243,7.243,0,0,0-.988,2.718A5.168,5.168,0,0,0,64.4,112.5a16.878,16.878,0,0,0,.988,1.571c.346.534.712,1.067,1.048,1.64a8.3,8.3,0,0,1,1.374,3.894l-.109-.1h5.623l-.109.089a15.189,15.189,0,0,1,1.146-3.953,17.117,17.117,0,0,1,.909-1.749,11.079,11.079,0,0,0,.771-1.68,6.246,6.246,0,0,0,.306-3.34,6.69,6.69,0,0,0-1.275-2.619,5.613,5.613,0,0,0-1.868-1.5,6.294,6.294,0,0,0-1.729-.553,7.005,7.005,0,0,0-1.136-.089h-.405Z" transform="translate(-9.605 -1.202)" fill="#fff"/>
      <path id="Path_18628" data-name="Path 18628" d="M71.293,119.529a.653.653,0,0,1,0-.089v-.257c0-.227-.089-.563-.148-.988-.128-.86-.316-2.1-.435-3.656,0-.4-.059-.8-.069-1.225a11.774,11.774,0,0,1,0-1.324,3.567,3.567,0,0,1,.316-1.393,2.115,2.115,0,0,1,.978-1.057,1.433,1.433,0,0,1,1.512.287,1.047,1.047,0,0,1,.316.761,1.4,1.4,0,0,1-.277.8,1.977,1.977,0,0,1-.672.534,4.012,4.012,0,0,1-.82.277,11.266,11.266,0,0,1-3.518.119,3.567,3.567,0,0,1-.84-.247,2.164,2.164,0,0,1-.692-.494,1.571,1.571,0,0,1-.405-.741,1.235,1.235,0,0,1,.1-.82,1.048,1.048,0,0,1,.583-.563.988.988,0,0,1,.781,0,1.552,1.552,0,0,1,.593.5,2.036,2.036,0,0,1,.3.692,8.894,8.894,0,0,1,.138,1.413l.138,2.55c.079,1.551.138,2.807.178,3.676v1.344a.611.611,0,0,0,0-.089v-.267a7.569,7.569,0,0,0-.059-.988c0-.87-.128-2.125-.217-3.676,0-.781-.089-1.631-.138-2.54a7.608,7.608,0,0,0-.148-1.4,1.779,1.779,0,0,0-.277-.662,1.374,1.374,0,0,0-.563-.474.919.919,0,0,0-.721,0,1.117,1.117,0,0,0-.544.524,1.215,1.215,0,0,0-.089.771,1.542,1.542,0,0,0,.385.7,2.471,2.471,0,0,0,1.482.711,10.278,10.278,0,0,0,1.749.089,10.08,10.08,0,0,0,1.739-.208,3.182,3.182,0,0,0,.8-.267,1.63,1.63,0,0,0,.642-.514,1.285,1.285,0,0,0,.267-.741.988.988,0,0,0-.3-.7,1.344,1.344,0,0,0-1.423-.277,2.046,2.046,0,0,0-.988.988,3.647,3.647,0,0,0-.306,1.354c0,.455,0,.9,0,1.324a6.939,6.939,0,0,0,.069,1.216c.119,1.551.3,2.8.405,3.666.059.425.109.761.138.988v.257A.613.613,0,0,1,71.293,119.529Z" transform="translate(-9.638 -1.266)" fill="#fff"/>
      <path id="Path_18629" data-name="Path 18629" d="M67.65,119.8a7.9,7.9,0,0,1,.079.919c0,.672.069,1.472.119,2.411v-.059l1.868,2.154h-.1l2.164-.128h-.089l1.067-1.314.544-.652v.079c0-1.265-.059-2.461-.079-3.558l.119.109H67.65a2.115,2.115,0,0,1,.385,0l1.136-.059,4.111-.158H73.4v.109c0,1.1.069,2.293.109,3.558h0l-.573.741-1.087,1.3h-.059l-2.164.109h-.059l-1.838-2.184h0v-2.461A4.7,4.7,0,0,1,67.65,119.8Z" transform="translate(-9.652 -1.385)" fill="#fff"/>
      <path id="Path_18630" data-name="Path 18630" d="M73.235,122.991a.446.446,0,0,1-.208-.079l-.563-.227a5.6,5.6,0,0,0-1.976-.3,5.713,5.713,0,0,0-1.976.415l-.514.188a.908.908,0,0,1-.2.1l.2-.1a3.852,3.852,0,0,1,.544-.277,5.178,5.178,0,0,1,1.976-.455,5.415,5.415,0,0,1,1.976.326,4.445,4.445,0,0,1,.553.257Z" transform="translate(-9.654 -1.418)" fill="#fff"/>
      <path id="Path_18631" data-name="Path 18631" d="M73.225,122.082l-.2-.089a5.772,5.772,0,0,0-.563-.217,5.376,5.376,0,0,0-1.976-.3,5.485,5.485,0,0,0-1.976.415c-.237.1-.415.188-.544.257l-.2.1a.6.6,0,0,1,.178-.128,5.049,5.049,0,0,1,.544-.287,5.188,5.188,0,0,1,3.953-.119,4.586,4.586,0,0,1,.553.247.781.781,0,0,1,.227.119Z" transform="translate(-9.653 -1.407)" fill="#fff"/>
      <path id="Path_18632" data-name="Path 18632" d="M73.176,121.252l-.2-.089c-.138-.059-.326-.138-.563-.217a5.475,5.475,0,0,0-3.884.119c-.237.089-.415.188-.544.247a.91.91,0,0,1-.2.1.83.83,0,0,1,.178-.119,4.24,4.24,0,0,1,.544-.287,5.267,5.267,0,0,1,3.953-.119,4.588,4.588,0,0,1,.553.247C73.116,121.2,73.186,121.242,73.176,121.252Z" transform="translate(-9.654 -1.397)" fill="#fff"/>
      <path id="Path_18633" data-name="Path 18633" d="M24.79,64.27S25,86.406,26.1,93.155l27.759-1.314S51.422,70.1,52.361,64.27Z" transform="translate(-9.147 -0.734)" fill="#ebebeb"/>
      <path id="Path_18634" data-name="Path 18634" d="M48.238,73.68a83.343,83.343,0,0,1-9.3.83,81.229,81.229,0,0,1-9.329.287,79.985,79.985,0,0,1,9.279-.8,76.3,76.3,0,0,1,9.348-.316Z" transform="translate(-9.203 -0.845)" fill="#fff"/>
      <path id="Path_18635" data-name="Path 18635" d="M48.238,78.42a80.05,80.05,0,0,1-9.3.83,78.582,78.582,0,0,1-9.329.287,83.012,83.012,0,0,1,9.279-.83A81.211,81.211,0,0,1,48.238,78.42Z" transform="translate(-9.203 -0.9)" fill="#fff"/>
      <path id="Path_18636" data-name="Path 18636" d="M43.563,83.078a26.4,26.4,0,0,1-5.287.593,25.873,25.873,0,0,1-5.326,0,26.011,26.011,0,0,1,5.287-.583A26.335,26.335,0,0,1,43.563,83.078Z" transform="translate(-9.243 -0.954)" fill="#fff"/>
      <path id="Path_18637" data-name="Path 18637" d="M23.46,130.16s.188,22.136,1.314,28.885l27.759-1.314s-2.441-21.741-1.5-27.571Z" transform="translate(-9.131 -1.511)" fill="#ebebeb"/>
      <path id="Path_18638" data-name="Path 18638" d="M46.908,139.57a80.327,80.327,0,0,1-9.3.83,78.618,78.618,0,0,1-9.329.287,79.982,79.982,0,0,1,9.289-.83,81.365,81.365,0,0,1,9.339-.287Z" transform="translate(-9.188 -1.621)" fill="#fff"/>
      <path id="Path_18639" data-name="Path 18639" d="M46.908,144.31a78.591,78.591,0,0,1-9.289.84,81.368,81.368,0,0,1-9.339.287,80.328,80.328,0,0,1,9.3-.83,80.05,80.05,0,0,1,9.329-.3Z" transform="translate(-9.188 -1.677)" fill="#fff"/>
      <path id="Path_18640" data-name="Path 18640" d="M42.233,149a26.4,26.4,0,0,1-5.287.593,26.335,26.335,0,0,1-5.326.049A26.406,26.406,0,0,1,36.937,149a26.338,26.338,0,0,1,5.3,0Z" transform="translate(-9.227 -1.731)" fill="#fff"/>
      <path id="Path_18641" data-name="Path 18641" d="M100.23,70.2l2.747,63.838,79.689.968L179.089,71.05Z" transform="translate(-10.036 -0.804)" fill="#ebebeb"/>
      <rect id="Rectangle_2819" data-name="Rectangle 2819" width="79.166" height="59.777" transform="translate(89.265 68.942)" fill="#f5f5f5"/>
      <path id="Path_18642" data-name="Path 18642" d="M178.452,129.512v-4.3c0-2.807,0-6.917-.059-12.1,0-10.426-.069-25.338-.119-43.382l.227.227-79.205.03h0l.277-.277v59.777l-.247-.247,57.109.128,16.236.059h.069l-16.177.069-57.267.119H99V69.33h79.66v.217c0,18.1-.089,33.066-.119,43.481,0,5.188,0,9.26-.059,12.046v3.152C178.482,128.959,178.452,129.512,178.452,129.512Z" transform="translate(-10.021 -0.794)" fill="#e0e0e0"/>
      <rect id="Rectangle_2820" data-name="Rectangle 2820" width="32.087" height="40.388" transform="translate(98.821 81.61)" fill="#f5f5f5"/>
      <path id="Path_18643" data-name="Path 18643" d="M141.046,122.945a.76.76,0,0,1,0-.208v-2.787c0-1.976,0-4.753-.059-8.281,0-7.115-.079-17.175-.128-29.113l.247.237H109.018l.267-.267h0v40.408l-.217-.217,23.233.109,6.512.059h.1l-6.473.059-23.371.109h-.227V82.567h0l.277-.277h32.334v.247c-.049,12.007-.1,22.116-.128,29.271l-.059,8.232v2.708A1.215,1.215,0,0,1,141.046,122.945Z" transform="translate(-10.137 -0.946)" fill="#e0e0e0"/>
      <rect id="Rectangle_2821" data-name="Rectangle 2821" width="61.496" height="5.821" transform="translate(100.047 72.361)" fill="#f5f5f5"/>
      <path id="Path_18644" data-name="Path 18644" d="M171.694,79.015V77.494c0-.988,0-2.451-.069-4.3l.109.119c-10.366.089-34,.158-61.5.158h0c.544-.544.148-.148.277-.267h0v5.811l-.267-.267,43.59.119,13.084.079h4.822a.821.821,0,0,1-.287,0h-4.4l-13.025.079-43.788.119h-.267v-6.1h0l.277-.277h0c27.492,0,51.13.069,61.5.158h.119v.109q0,2.816-.059,4.358V78.5A1.423,1.423,0,0,1,171.694,79.015Z" transform="translate(-10.151 -0.834)" fill="#e0e0e0"/>
      <rect id="Rectangle_2822" data-name="Rectangle 2822" width="26.711" height="24.34" transform="translate(134.841 81.61)" fill="#f5f5f5"/>
      <path id="Path_18645" data-name="Path 18645" d="M172.109,106.9v-1.8c0-1.186,0-2.856-.059-4.941,0-4.279-.069-10.327-.119-17.58l.227.227H145.477l.267-.267h0v24.32l-.237-.237,19.26.119,5.465.059h1.976a2.528,2.528,0,0,1-.464,0H170.33l-5.406.069-19.418.119h-.247V82.577h0c-.247.237.326-.336.277-.277h26.919v.237c0,7.313-.089,13.41-.119,17.729,0,2.085-.049,3.735-.059,4.941v1.275A2.143,2.143,0,0,1,172.109,106.9Z" transform="translate(-10.566 -0.946)" fill="#e0e0e0"/>
      <rect id="Rectangle_2823" data-name="Rectangle 2823" width="26.711" height="12.234" transform="translate(134.841 109.765)" fill="#f5f5f5"/>
      <path id="Path_18646" data-name="Path 18646" d="M172.11,123.279v-3.35c0-2.154-.059-5.178-.109-8.894l.2.2-26.682.069.267-.267h0v12.214l-.257-.257,19.092.128,5.574.069h1.5a2.155,2.155,0,0,1,.534,0,2.587,2.587,0,0,1-.474,0H170.3l-5.5.069-19.27.128h-.267V110.907h0l.277-.277,26.682.079h.208v.2c0,3.755-.079,6.819-.1,9,0,.988,0,1.808-.049,2.411A4.941,4.941,0,0,1,172.11,123.279Z" transform="translate(-10.567 -1.28)" fill="#e0e0e0"/>
      <path id="Path_18647" data-name="Path 18647" d="M140.257,82.63c-9.941,13.716-21.375,26.593-31.257,40.319" transform="translate(-10.139 -0.95)" fill="#fff"/>
      <path id="Path_18648" data-name="Path 18648" d="M109,122.949a3.081,3.081,0,0,1,.257-.455l.84-1.235c.731-1.057,1.828-2.569,3.212-4.427,2.757-3.706,6.7-8.726,11.127-14.22s8.37-10.465,11.246-14.112l3.35-4.318.919-1.166a1.88,1.88,0,0,1,.356-.385,2.52,2.52,0,0,1-.267.445l-.84,1.235c-.731,1.057-1.828,2.579-3.212,4.427-2.757,3.706-6.7,8.726-11.127,14.22s-8.4,10.465-11.236,14.112l-3.35,4.318-.919,1.166A2.688,2.688,0,0,1,109,122.949Z" transform="translate(-10.139 -0.95)" fill="#e0e0e0"/>
      <line id="Line_405" data-name="Line 405" x2="32.087" y2="40.388" transform="translate(98.821 81.61)" fill="#fff"/>
      <path id="Path_18649" data-name="Path 18649" d="M141.047,122.938c-.119.1-7.4-8.894-16.256-20.021S108.842,82.649,108.98,82.56s7.392,8.894,16.256,20.021S141.166,122.849,141.047,122.938Z" transform="translate(-10.139 -0.95)" fill="#e0e0e0"/>
      <path id="Path_18650" data-name="Path 18650" d="M102.88,82.58a5.02,5.02,0,1,1-5.02-5.02,5.02,5.02,0,0,1,5.02,5.02Z" transform="translate(-9.949 -0.891)" fill="#e0e0e0"/>
      <path id="Path_18651" data-name="Path 18651" d="M185.98,70.25a5.02,5.02,0,1,1-1.477-3.557,5.02,5.02,0,0,1,1.477,3.557Z" transform="translate(-10.928 -0.745)" fill="#e0e0e0"/>
      <rect id="Rectangle_2824" data-name="Rectangle 2824" width="57.85" height="83.86" transform="translate(313.579 104.478)" fill="#e0e0e0"/>
      <rect id="Rectangle_2825" data-name="Rectangle 2825" width="57.85" height="83.86" transform="translate(310.684 104.478)" fill="#f5f5f5"/>
      <rect id="Rectangle_2826" data-name="Rectangle 2826" width="43.481" height="65.696" transform="translate(317.868 113.559)" fill="#fff"/>
      <path id="Path_18652" data-name="Path 18652" d="M374.1,180.573V162.182c0-11.582,0-27.986-.069-47.3l.148.138H330.7l.158-.158v65.686l-.128-.119,31.623.059h.079l-31.722.069h-.128V114.59h43.778v.148c0,19.349-.049,35.793-.069,47.434v17.985Z" transform="translate(-12.751 -1.327)" fill="#e0e0e0"/>
      <path id="Path_18653" data-name="Path 18653" d="M381.956,105.7a9.884,9.884,0,0,1-.988,1.492c-.672.9-1.631,2.125-2.718,3.449s-2.1,2.49-2.856,3.32a11.25,11.25,0,0,1-1.275,1.3,10.932,10.932,0,0,1,1.107-1.453l2.787-3.38c1.048-1.275,1.976-2.431,2.777-3.38a11.478,11.478,0,0,1,1.166-1.354Z" transform="translate(-13.265 -1.222)" fill="#e0e0e0"/>
      <path id="Path_18654" data-name="Path 18654" d="M374.84,181.15a53.877,53.877,0,0,0,7.58,9.487" transform="translate(-13.273 -2.112)" fill="#fff"/>
      <path id="Path_18655" data-name="Path 18655" d="M382.42,190.627a8.262,8.262,0,0,1-1.314-1.2,41.877,41.877,0,0,1-2.866-3.231,42.718,42.718,0,0,1-2.52-3.5,8.2,8.2,0,0,1-.88-1.552,12,12,0,0,1,1.067,1.423c.632.9,1.532,2.125,2.579,3.429s2.046,2.461,2.777,3.271A11.411,11.411,0,0,1,382.42,190.627Z" transform="translate(-13.273 -2.112)" fill="#e0e0e0"/>
      <path id="Path_18656" data-name="Path 18656" d="M323.34,190.378q3.775-4.684,7.58-9.358" transform="translate(-12.666 -2.11)" fill="#fff"/>
      <path id="Path_18657" data-name="Path 18657" d="M330.909,181c.059.059-1.581,2.194-3.666,4.783a59.348,59.348,0,0,1-3.953,4.575,56.242,56.242,0,0,1,3.666-4.783A59.333,59.333,0,0,1,330.909,181Z" transform="translate(-12.665 -2.11)" fill="#e0e0e0"/>
      <path id="Path_18658" data-name="Path 18658" d="M323.35,105.7a52.716,52.716,0,0,1,3.676,4.4,54.445,54.445,0,0,1,3.429,4.585,50.538,50.538,0,0,1-3.676-4.4,51.944,51.944,0,0,1-3.429-4.585Z" transform="translate(-12.666 -1.222)" fill="#e0e0e0"/>
      <rect id="Rectangle_2827" data-name="Rectangle 2827" width="14.556" height="41.337" transform="translate(333.245 126.89)" fill="#e0e0e0"/>
      <rect id="Rectangle_2828" data-name="Rectangle 2828" width="8.281" height="41.208" transform="matrix(1, -0.005, 0.005, 1, 349.818, 15.416)" fill="#e0e0e0"/>
      <rect id="Rectangle_2829" data-name="Rectangle 2829" width="21.444" height="22.749" transform="matrix(1, -0.005, 0.005, 1, 278.075, 15.597)" fill="#ebebeb"/>
      <rect id="Rectangle_2830" data-name="Rectangle 2830" width="21.444" height="22.749" transform="matrix(1, -0.005, 0.005, 1, 299.41, 15.481)" fill="#f5f5f5"/>
      <path id="Path_18659" data-name="Path 18659" d="M290.378,22.122c14.25.119,28.54,0,42.79-.2a.227.227,0,1,0,0-.455q-21.395-.119-42.79.267a.2.2,0,0,0,0,.385Z" transform="translate(-12.276 -0.229)" fill="#e0e0e0"/>
      <rect id="Rectangle_2831" data-name="Rectangle 2831" width="38.965" height="18.539" transform="matrix(1, -0.005, 0.005, 1, 264.697, 38.062)" fill="#ebebeb"/>
      <rect id="Rectangle_2832" data-name="Rectangle 2832" width="38.965" height="18.539" transform="matrix(1, -0.005, 0.005, 1, 303.483, 37.852)" fill="#f5f5f5"/>
      <path id="Path_18660" data-name="Path 18660" d="M276.838,43.709c25.891.3,51.861,0,77.743-.376a.237.237,0,0,0,0-.464c-25.891-.128-51.861-.119-77.743.455a.2.2,0,0,0,0,.385Z" transform="translate(-12.116 -0.481)" fill="#e0e0e0"/>
      <rect id="Rectangle_2833" data-name="Rectangle 2833" width="150.959" height="6.641" transform="translate(250.156 56.619)" fill="#e0e0e0"/>
      <rect id="Rectangle_2834" data-name="Rectangle 2834" width="6.127" height="22.66" transform="translate(274.871 59.81)" fill="#e0e0e0"/>
      <rect id="Rectangle_2835" data-name="Rectangle 2835" width="6.127" height="22.66" transform="translate(366.35 59.81)" fill="#e0e0e0"/>
      <rect id="Rectangle_2836" data-name="Rectangle 2836" width="8.281" height="56.674" transform="matrix(1, -0.005, 0.005, 1, 357.897, 0.045)" fill="#ebebeb"/>
      <rect id="Rectangle_2837" data-name="Rectangle 2837" width="12.867" height="45.932" transform="matrix(1, -0.005, 0.005, 1, 366.245, 10.623)" fill="#f5f5f5"/>
      <path id="Path_18661" data-name="Path 18661" d="M392.357,19.627a47.078,47.078,0,0,1-6.433.227,46.959,46.959,0,0,1-6.433-.227,91.164,91.164,0,0,1,12.847,0Z" transform="translate(-13.328 -0.205)" fill="#e0e0e0"/>
      <path id="Path_18662" data-name="Path 18662" d="M392.357,17.677a48.145,48.145,0,0,1-6.433.217,48.017,48.017,0,0,1-6.433-.217,91.161,91.161,0,0,1,12.847,0Z" transform="translate(-13.328 -0.182)" fill="#e0e0e0"/>
      <path id="Path_18663" data-name="Path 18663" d="M392.357,50.157a47.079,47.079,0,0,1-6.433.227,46.959,46.959,0,0,1-6.433-.227,91.163,91.163,0,0,1,12.847,0Z" transform="translate(-13.328 -0.565)" fill="#e0e0e0"/>
      <path id="Path_18664" data-name="Path 18664" d="M392.357,48.207a48.147,48.147,0,0,1-6.433.217,48.017,48.017,0,0,1-6.433-.217,91.161,91.161,0,0,1,12.847,0Z" transform="translate(-13.328 -0.542)" fill="#e0e0e0"/>
      <path id="Path_18665" data-name="Path 18665" d="M386.207,43.753c-.128,0-.227-4.635-.227-10.347s.1-10.356.227-10.356.217,4.635.217,10.356S386.326,43.753,386.207,43.753Z" transform="translate(-13.404 -0.248)" fill="#e0e0e0"/>
      <rect id="Rectangle_2838" data-name="Rectangle 2838" width="14.003" height="34.666" transform="translate(379.167 21.853)" fill="#ebebeb"/>
      <path id="Path_18666" data-name="Path 18666" d="M400.1,48a2.965,2.965,0,0,1-3.1-3.113,2.688,2.688,0,0,1,1.136-2.342l.316.435a2.273,2.273,0,0,0-.919,1.907,2.6,2.6,0,1,0,5.2,0,2.253,2.253,0,0,0-.929-1.907l.326-.435a2.727,2.727,0,0,1,1.127,2.342A2.965,2.965,0,0,1,400.1,48Z" transform="translate(-13.534 -0.478)" fill="#fafafa"/>
      <path id="Path_18667" data-name="Path 18667" d="M402.434,41.622l-.494-.277a3.587,3.587,0,0,0,.741-2.214c0-1.3-.464-1.818-1.156-1.818-1.8,0-.474,4.081-2.9,4.081-.929,0-1.69-.781-1.69-2.332a3.8,3.8,0,0,1,.6-2.115l.474.267a3.212,3.212,0,0,0-.553,1.858c0,1.206.494,1.739,1.156,1.739,1.848,0,.543-4.091,2.9-4.091.988,0,1.68.86,1.68,2.431a3.835,3.835,0,0,1-.761,2.471Z" transform="translate(-13.534 -0.409)" fill="#fafafa"/>
      <path id="Path_18668" data-name="Path 18668" d="M402.435,35.942l-.464-.277a3.617,3.617,0,0,0,.741-2.223c0-1.295-.464-1.818-1.156-1.818-1.8,0-.474,4.091-2.9,4.091-.929,0-1.69-.781-1.69-2.342a3.794,3.794,0,0,1,.6-2.115l.474.277a3.212,3.212,0,0,0-.553,1.858c0,1.2.494,1.729,1.156,1.729,1.848,0,.543-4.081,2.9-4.081.988,0,1.68.86,1.68,2.431a3.835,3.835,0,0,1-.791,2.471Z" transform="translate(-13.534 -0.342)" fill="#fafafa"/>
      <circle id="Ellipse_544" data-name="Ellipse 544" cx="2.382" cy="2.382" r="2.382" transform="translate(359.531 7.317)" fill="#e0e0e0"/>
      <rect id="Rectangle_2839" data-name="Rectangle 2839" width="1.472" height="33.718" transform="translate(361.172 16.25)" fill="#e0e0e0"/>
    </g>
    <g id="Floor" transform="translate(0.988 408.2)">
      <path id="Path_18669" data-name="Path 18669" d="M427.344,413.337c0,.138-95.451.257-213.167.257S1,413.475,1,413.337s95.432-.267,213.187-.267S427.344,413.189,427.344,413.337Z" transform="translate(-1 -413.07)" fill="#263238"/>
    </g>
    <g id="Hourglass" transform="translate(97.889 56.377)">
      <path id="Path_18670" data-name="Path 18670" d="M117.582,69.55c-15.811,24.952-14.823,59.53,2.51,83.484,11.552,15.96,28.876,26.682,42.631,40.764s24.211,34.894,16.948,53.215c-7.392,18.648-29.044,26.237-45.25,38.046A85.54,85.54,0,0,0,113.826,401.9H282.2s29.587-56.387-8.449-99.355-58.463-43.669-57.059-71.843,21.128-37.335,32.4-47.9S315.3,147.579,282.9,69.55Z" transform="translate(-99.059 -57.197)" fill="#fafafa"/>
      <path id="Path_18671" data-name="Path 18671" d="M117.579,69.548h11.434l32.868-.049L282.9,69.41h.128v.109A155.26,155.26,0,0,1,289.3,87.761a105.183,105.183,0,0,1,3.577,19.764,78.317,78.317,0,0,1-1.067,20.92,67.267,67.267,0,0,1-7.609,20.337,73.606,73.606,0,0,1-6.344,9.2,85.189,85.189,0,0,1-7.757,8.3,114.487,114.487,0,0,1-8.805,7.451c-3.063,2.372-6.265,4.615-9.388,6.977-1.561,1.186-2.965,2.51-4.486,3.834s-3.034,2.55-4.6,3.795c-3.113,2.49-6.255,4.941-9.22,7.708a49.282,49.282,0,0,0-13.835,19.833,48.421,48.421,0,0,0-2.629,12.125c-.089,1.048-.227,2.085-.267,3.133a27.78,27.78,0,0,0,0,3.143,35.171,35.171,0,0,0,.632,6.265,28.49,28.49,0,0,0,5.06,11.532,63.579,63.579,0,0,0,8.726,9.457c6.4,5.85,13.183,11.434,19.675,17.452s12.847,12.323,18.974,18.964a115.108,115.108,0,0,1,8.756,10.416,73.413,73.413,0,0,1,7.076,11.78,77.416,77.416,0,0,1,7.253,26.682,97.973,97.973,0,0,1-1.64,28.075,115.792,115.792,0,0,1-3.637,13.805,101.3,101.3,0,0,1-5.326,13.321l-.069.138H113.646l-.069-.109a86.854,86.854,0,0,1-14.1-39.756,83.86,83.86,0,0,1,5.83-40.131,87.4,87.4,0,0,1,22.255-31.811,101.347,101.347,0,0,1,15.2-11.088c5.257-3.271,10.564-6.285,15.574-9.586a71.259,71.259,0,0,0,13.716-11.157,37.552,37.552,0,0,0,8.479-14.7,36.663,36.663,0,0,0,.672-16.414,53.837,53.837,0,0,0-5.208-15.12,74.394,74.394,0,0,0-8.479-12.847,102.447,102.447,0,0,0-10.208-10.712c-7.125-6.562-14.428-12.3-20.99-18.2-3.291-2.965-6.4-5.929-9.279-8.963a83.861,83.861,0,0,1-7.688-9.477,72.475,72.475,0,0,1-9.635-19.972,74.768,74.768,0,0,1-3.281-18.914c-.138-1.472-.079-2.965-.079-4.318s0-2.787.128-4.121.2-2.639.3-3.953.366-2.49.534-3.676a70.163,70.163,0,0,1,6.512-20.93,27.612,27.612,0,0,1,1.522-2.965l1.216-2.055c.642-1.107.988-1.66.988-1.66l-.988,1.69-1.176,2.065a28.476,28.476,0,0,0-1.5,2.965,70.885,70.885,0,0,0-6.522,20.96c-.168,1.2-.366,2.411-.514,3.676s-.2,2.569-.3,3.953-.1,2.708-.109,4.111,0,2.836.089,4.309a74.452,74.452,0,0,0,3.34,18.8,72.139,72.139,0,0,0,9.625,19.883,82.327,82.327,0,0,0,7.678,9.437,126.413,126.413,0,0,0,9.269,8.894c6.562,5.929,13.835,11.611,21.009,18.183a102.254,102.254,0,0,1,10.307,10.732,73.909,73.909,0,0,1,8.528,12.926,54,54,0,0,1,5.257,15.2,36.988,36.988,0,0,1-.672,16.582,37.779,37.779,0,0,1-8.558,14.873,71.762,71.762,0,0,1-13.776,11.226c-5.03,3.32-10.337,6.344-15.584,9.605a100.875,100.875,0,0,0-15.129,11.048A86.962,86.962,0,0,0,105.7,322.264a83.3,83.3,0,0,0-5.712,39.963,86.469,86.469,0,0,0,14.033,39.528l-.2-.109H282.2l-.227.138a100.382,100.382,0,0,0,5.317-13.222,114.784,114.784,0,0,0,3.6-13.716,97.339,97.339,0,0,0,1.631-27.927,76.606,76.606,0,0,0-7.2-26.533,73.175,73.175,0,0,0-7.006-11.7,115.13,115.13,0,0,0-8.716-10.416q-9.141-9.961-18.944-18.944c-6.483-6.018-13.252-11.592-19.665-17.452a64.326,64.326,0,0,1-8.8-9.536,29.1,29.1,0,0,1-5.129-11.73,37.028,37.028,0,0,1-.642-6.344c-.049-1.057,0-2.115,0-3.172s.178-2.1.257-3.152a48.9,48.9,0,0,1,2.668-12.244,49.688,49.688,0,0,1,13.963-20.021c2.965-2.737,6.137-5.228,9.25-7.718,1.561-1.245,3.093-2.49,4.585-3.785s2.965-2.658,4.506-3.844c3.143-2.372,6.334-4.605,9.388-6.977a113.815,113.815,0,0,0,8.785-7.421,84.317,84.317,0,0,0,7.718-8.252,74.912,74.912,0,0,0,6.315-9.141,66.913,66.913,0,0,0,7.57-20.2,77.9,77.9,0,0,0,1.117-20.792,105.376,105.376,0,0,0-3.548-19.764,157.011,157.011,0,0,0-6.245-18.2l.168.119L161.95,69.647,129.062,69.6H120.5Z" transform="translate(-99.057 -57.195)" fill="#263238"/>
      <path id="Path_18672" data-name="Path 18672" d="M276.367,115.675c24.8,4.071-14.3,48.007-36.445,65.341-12.847,10.04-26.583,20.92-32.67,36.03-6.917,17.126-1.789,36.386-5.129,53.62a2.391,2.391,0,0,1-4.743-.5c.158-11.315-.138-22.62-1.976-33.757-2.658-15.811-8.726-31.425-19.764-43-9.042-9.447-20.891-15.722-30.526-24.557C131.041,156,116.583,139.313,115.17,120.28c0,0,27.018-21.741,42.019-19.013,17.531,3.212,34.785,30.249,61.941,27.156C238.024,126.259,247.6,110.942,276.367,115.675Z" transform="translate(-99.247 -57.568)" fill="#881729"/>
      <path id="Path_18673" data-name="Path 18673" d="M278.489,353.442c-.623-6.2-2.283-13.222-7.787-16.147-3.33-1.769-7.392-1.571-11.048-.613s-7.085,2.619-10.7,3.7a35.121,35.121,0,0,1-21.909-.692c-6.73-2.471-12.5-6.918-18.776-10.455s-13.558-6.137-20.515-4.4c-12,2.965-18.242,17.422-30.1,20.911-5.277,1.552-10.94.682-16.3-.534s-10.742-2.777-16.226-2.569c-4.309.168-8.785,1.65-11.8,4.6h0l-.079.1a11.039,11.039,0,0,0-1.364,1.591c-3.676,4.941-4.269,11.5-3.133,17.491,1.265,6.7,4.4,12.9,7.757,18.835,3.953,7,8.459,13.963,15,18.628,8.084,5.751,18.232,1.779,28.124,2.559,23.055,1.818,47.859,3.063,70.924,1.275,12.185-.939,23.6.376,33.263-7.1,6.8-5.257,11.226-13.183,13.361-21.513S279.349,362,278.489,353.442Z" transform="translate(-99.165 -60.2)" fill="#881729"/>
      <g id="Group_9615" data-name="Group 9615" transform="translate(132.171 281.364)" opacity="0.24">
        <path id="Path_18674" data-name="Path 18674" d="M236.437,341.77c-1.295,1.976-1.858,4.664-.593,6.69s2.965,3.864,3.488,6.176c.86,3.647-1.334,7.2-2.965,10.564a33.659,33.659,0,0,0-3.271,19.5,26.5,26.5,0,0,0,9.675,17.027c2.342,1.808,5.386,3.212,8.212,2.332,2.658-.84,4.368-3.538,4.941-6.265s.089-5.554-.257-8.321a129.042,129.042,0,0,1,.988-38.609c.376-2.135.731-4.556-.613-6.246a7.253,7.253,0,0,0-3.548-1.976c-5.139-1.71-10.683.188-16.009-.82" transform="translate(-232.804 -341.77)"/>
      </g>
      <path id="Path_18675" data-name="Path 18675" d="M101.45,413.456s-.464-7.738,9.615-12.036H288.2s9.24,4.674,10.376,11.859Z" transform="translate(-99.085 -61.109)" fill="#263238"/>
      <path id="Path_18676" data-name="Path 18676" d="M284.6,70.351l-.287.128L117.754,69.4s-.593-.376-1.472-1.067a6.315,6.315,0,0,1,3.953-11.285l161.671,1.3C288.556,58.4,290.631,67.5,284.6,70.351Z" transform="translate(-99.231 -57.05)" fill="#263238"/>
      <g id="Group_9616" data-name="Group 9616" transform="translate(48.327 74.664)" opacity="0.24">
        <path id="Path_18677" data-name="Path 18677" d="M258.343,134.774c.336.642-.919,2.036-3.3,4.15s-5.929,5.03-10.337,8.617a135.638,135.638,0,0,1-16.8,11.859,67.388,67.388,0,0,1-11.493,5.218,52.732,52.732,0,0,1-6.611,1.828,42.92,42.92,0,0,1-7.145.929A38.175,38.175,0,0,1,188.3,165.4a52.158,52.158,0,0,1-11.542-5.929c-3.32-2.2-6.176-4.378-8.894-6.453s-5.139-4.1-7.333-5.989c-8.746-7.58-13.351-13.153-12.461-14.23s7.115,2.431,16.8,8.36L172.774,146c2.836,1.719,5.87,3.617,8.973,5.376a50.242,50.242,0,0,0,9.734,4.4,30.782,30.782,0,0,0,10.712,1.265c7.589-.385,14.952-3.063,21.326-6.137s12.145-6.69,17.145-9.487a86.628,86.628,0,0,1,12.372-6.038C256.12,134.359,258.017,134.161,258.343,134.774Z" transform="translate(-147.96 -132.604)"/>
      </g>
      <path id="Path_18678" data-name="Path 18678" d="M198.457,293.578a2.768,2.768,0,1,1-.138.049" transform="translate(-100.206 -59.836)" fill="#e8505b"/>
      <path id="Path_18679" data-name="Path 18679" d="M137.92,161.8a5.166,5.166,0,0,1-.593-.593c-.4-.445-.939-.988-1.611-1.769s-1.581-1.7-2.5-2.856l-3.143-3.953c-1.077-1.522-2.293-3.152-3.518-4.941l-1.808-2.876c-.306-.494-.632-.988-.929-1.5l-.87-1.611a66.605,66.605,0,0,1-6.137-14.823,62.149,62.149,0,0,1-2.332-15.811c0-1.225.069-2.431.089-3.6a12.377,12.377,0,0,1,.079-1.719c.079-.563.119-1.127.178-1.67.128-1.087.208-2.144.356-3.143s.356-1.976.524-2.886c.277-1.838.771-3.459,1.117-4.941.188-.712.336-1.383.524-1.976s.376-1.146.544-1.64l.761-2.273a5.168,5.168,0,0,1,.3-.781,4.29,4.29,0,0,1-.2.81c-.168.573-.385,1.334-.672,2.3l-.494,1.65c-.168.613-.306,1.285-.484,1.976a43.54,43.54,0,0,0-.988,4.941c-.158.919-.316,1.868-.484,2.866s-.208,2.055-.326,3.133c-.049.544-.109,1.1-.168,1.66s0,1.127-.059,1.71c0,1.156-.079,2.352-.069,3.577a62.514,62.514,0,0,0,2.352,15.693,68.009,68.009,0,0,0,6.058,14.685q.435.82.86,1.6c.287.524.613.988.909,1.512l1.779,2.876c1.206,1.808,2.4,3.449,3.449,4.941s2.174,2.777,3.083,3.953,1.769,2.095,2.421,2.9l1.542,1.838a4.707,4.707,0,0,1,.464.741Z" transform="translate(-99.238 -57.396)" fill="#263238"/>
      <path id="Path_18680" data-name="Path 18680" d="M128.71,309.9a1.324,1.324,0,0,1,.178-.326l.593-.929.988-1.5.623-.988c.247-.326.534-.652.82-.988l1.976-2.362c.761-.82,1.631-1.67,2.55-2.609a68.194,68.194,0,0,1,6.779-5.7c5.247-3.953,12.017-7.906,19.349-12.54a112.34,112.34,0,0,0,11.1-7.817,52.09,52.09,0,0,0,9.951-10.524,49.776,49.776,0,0,0,8.054-26.514,62.663,62.663,0,0,0-3.795-22.521,83.881,83.881,0,0,0-6.542-14.043c-.919-1.581-1.67-2.8-2.184-3.607l-.583-.929a3.515,3.515,0,0,1-.188-.336,2.18,2.18,0,0,1,.237.306l.623.9c.544.8,1.324,1.976,2.263,3.567a80.362,80.362,0,0,1,6.72,14.023,62.564,62.564,0,0,1,3.953,22.65,53.527,53.527,0,0,1-.544,6.67,48.976,48.976,0,0,1-1.453,6.829,46.505,46.505,0,0,1-6.107,13.3,52.621,52.621,0,0,1-10.06,10.623,113.756,113.756,0,0,1-11.157,7.827c-7.451,4.556-14.23,8.508-19.478,12.461a72.546,72.546,0,0,0-6.8,5.623c-.919.919-1.8,1.759-2.569,2.56l-1.976,2.332c-.3.356-.583.672-.83.988l-.642.939-.988,1.472-.632.9Z" transform="translate(-99.406 -58.684)" fill="#263238"/>
      <path id="Path_18681" data-name="Path 18681" d="M119.31,328.93a2.835,2.835,0,0,1-.217.455l-.712,1.255c-.316.544-.692,1.206-1.067,1.976s-.889,1.68-1.3,2.718c-.217.514-.455,1.047-.692,1.611s-.435,1.166-.672,1.779c-.474,1.216-.85,2.569-1.285,3.953a53.7,53.7,0,0,0-1.739,18.993c.168,1.463.287,2.856.544,4.151.109.642.2,1.275.326,1.868l.4,1.7c.217,1.1.544,2.055.781,2.915s.474,1.581.692,2.164.336.988.464,1.364a1.789,1.789,0,0,1,.128.494,2.146,2.146,0,0,1-.227-.455c-.148-.356-.326-.8-.553-1.334a21.036,21.036,0,0,1-.781-2.144c-.267-.86-.613-1.818-.86-2.965-.138-.544-.277-1.117-.425-1.71s-.237-1.225-.366-1.878c-.277-1.295-.415-2.7-.593-4.18a51.694,51.694,0,0,1,1.759-19.161c.445-1.423.84-2.777,1.344-3.953.247-.623.445-1.225.7-1.789s.494-1.087.731-1.6c.435-1.038.988-1.917,1.374-2.7a19.611,19.611,0,0,1,1.156-1.976l.791-1.206C119.191,329.058,119.29,328.92,119.31,328.93Z" transform="translate(-99.196 -60.255)" fill="#263238"/>
      <path id="Path_18682" data-name="Path 18682" d="M241.908,353a1.293,1.293,0,0,1-.2.148l-.613.385-2.362,1.443-1.769.988c-.652.356-1.374.692-2.144,1.087-1.561.751-3.281,1.7-5.317,2.47l-3.162,1.295c-1.1.445-2.293.781-3.5,1.206-2.4.88-5.07,1.5-7.846,2.223a92.23,92.23,0,0,1-37.167.988c-2.816-.583-5.514-1.067-7.965-1.818-1.225-.356-2.431-.632-3.558-.988l-3.222-1.127c-2.065-.662-3.844-1.532-5.435-2.194-.791-.356-1.532-.652-2.194-.988l-1.8-.939-2.471-1.314-.632-.346a.859.859,0,0,1-.208-.138.521.521,0,0,1,.237.089l.652.306,2.51,1.225,1.808.9c.672.306,1.423.593,2.214.929,1.591.642,3.37,1.482,5.445,2.115l3.212,1.1c1.127.366,2.332.632,3.558.988,2.441.731,5.119,1.2,7.906,1.759a93.693,93.693,0,0,0,36.979-.988c2.767-.711,5.425-1.324,7.827-2.174,1.206-.405,2.391-.741,3.488-1.166l3.162-1.265c2.036-.741,3.765-1.67,5.326-2.392.771-.376,1.5-.7,2.154-1.048l1.759-.988,2.441-1.354.642-.346Z" transform="translate(-99.661 -60.538)" fill="#263238"/>
      <path id="Path_18683" data-name="Path 18683" d="M252.326,141.32a1.27,1.27,0,0,1-.208.2l-.652.534-2.52,1.976c-2.194,1.739-5.376,4.259-9.4,7.263a135.887,135.887,0,0,1-14.695,9.714,67.278,67.278,0,0,1-9.467,4.358,43.156,43.156,0,0,1-10.959,2.471,41.5,41.5,0,0,1-20.99-4.368,71.212,71.212,0,0,1-8.113-4.822c-2.411-1.71-4.615-3.35-6.562-4.941-3.953-3.143-6.977-5.8-9.111-7.619l-2.411-2.115-.623-.563-.208-.208a1.314,1.314,0,0,1,.237.168l.662.524,2.5,2.036c2.174,1.769,5.277,4.388,9.21,7.481,1.976,1.561,4.16,3.182,6.581,4.862a72.136,72.136,0,0,0,8.074,4.773,41.5,41.5,0,0,0,20.752,4.279,43.283,43.283,0,0,0,10.8-2.391,67.392,67.392,0,0,0,9.408-4.3,142.112,142.112,0,0,0,14.714-9.6c4.032-2.965,7.244-5.435,9.487-7.125l2.579-1.976.682-.494Z" transform="translate(-99.733 -58.043)" fill="#263238"/>
      <g id="Group_9617" data-name="Group 9617" transform="translate(63.466 297.471)" opacity="0.24">
        <path id="Path_18684" data-name="Path 18684" d="M163.28,361.321c4.684-3.617,11.266-2.737,17.057-1.522s11.621,3.2,17.481,2.382c4.417-.623,8.469-2.8,12.847-3.735s9.645-.247,12.066,3.5a93.879,93.879,0,0,1-59.421-.623" transform="translate(-163.28 -358.069)"/>
      </g>
    </g>
    <g id="Plant" transform="translate(-0.001 215.637)">
      <path id="Path_18741" data-name="Path 18741" d="M28.881,385.168a2.773,2.773,0,0,1,.178-.415l.553-1.2a29.98,29.98,0,0,0,1.65-4.773c1.087-4.249,1.463-10.742-.148-18.46A97.328,97.328,0,0,0,27.7,347.933c-1.453-4.4-3.133-9.072-4.506-14.112a54.817,54.817,0,0,1-2.223-16.226c.208-5.742,1.907-11.473,3.775-17.175s3.795-11.3,4.378-16.908a25.822,25.822,0,0,0-3.1-15.624c-2.48-4.556-5.583-8.459-7.906-12.491a43.481,43.481,0,0,1-4.763-12.007,44.815,44.815,0,0,1-.3-18.608,35.172,35.172,0,0,1,1.976-6.572,2.964,2.964,0,0,1-.109.435l-.4,1.265a44.341,44.341,0,0,0-.721,23.381,43.175,43.175,0,0,0,4.773,11.859c2.322,3.953,5.445,7.906,7.965,12.481a26.286,26.286,0,0,1,3.2,15.93c-.583,5.712-2.53,11.335-4.388,17.037s-3.548,11.374-3.755,17.017a54.243,54.243,0,0,0,2.164,16.058c1.354,5.02,3.024,9.694,4.447,14.1a97.656,97.656,0,0,1,3.37,12.471c1.571,7.767,1.117,14.329-.049,18.6a26.682,26.682,0,0,1-1.759,4.763c-.257.5-.464.889-.613,1.176a1.66,1.66,0,0,1-.277.385Z" transform="translate(-0.143 -218.21)" fill="#263238"/>
      <path id="Path_18742" data-name="Path 18742" d="M21.354,259.582s-4.734-15.12,3.755-23.974a.524.524,0,0,1,.9.257C26.463,238.365,27.027,245.964,21.354,259.582Z" transform="translate(-0.236 -218.413)" fill="#e8505b"/>
      <path id="Path_18743" data-name="Path 18743" d="M24.2,240.7a14.171,14.171,0,0,1-.326,2.8c-.306,1.917-.672,4.18-1.077,6.67l-1.057,6.641a14.368,14.368,0,0,1-.5,2.757,12.017,12.017,0,0,1,.089-2.806c.158-1.729.464-4.111.889-6.72s.88-4.941,1.255-6.651A12.709,12.709,0,0,1,24.2,240.7Z" transform="translate(-0.249 -218.475)" fill="#263238"/>
      <path id="Path_18744" data-name="Path 18744" d="M27,295.768s2.9-15.574,14.537-19.438a.534.534,0,0,1,.672.652C41.428,279.363,38.374,286.35,27,295.768Z" transform="translate(-0.318 -218.895)" fill="#e8505b"/>
      <path id="Path_18745" data-name="Path 18745" d="M38.353,280.36a13.834,13.834,0,0,1-1.591,2.322l-4.071,5.4-4.052,5.4a13.931,13.931,0,0,1-1.739,2.2,11.917,11.917,0,0,1,1.393-2.441c.988-1.453,2.322-3.419,3.953-5.524s3.1-3.953,4.22-5.287a12.6,12.6,0,0,1,1.887-2.065Z" transform="translate(-0.317 -218.943)" fill="#263238"/>
      <path id="Path_18746" data-name="Path 18746" d="M23.809,335.237s-1.789-15.742,8.261-22.818a.524.524,0,0,1,.83.425C32.89,315.383,31.971,322.963,23.809,335.237Z" transform="translate(-0.279 -219.319)" fill="#e8505b"/>
      <path id="Path_18747" data-name="Path 18747" d="M30.2,317.25a13.3,13.3,0,0,1-.85,2.678c-.672,1.828-1.453,3.953-2.332,6.344l-2.3,6.344a14.289,14.289,0,0,1-.988,2.609,12.521,12.521,0,0,1,.623-2.737c.484-1.67,1.235-3.953,2.154-6.423s1.818-4.7,2.5-6.295A12.077,12.077,0,0,1,30.2,317.25Z" transform="translate(-0.279 -219.377)" fill="#263238"/>
      <path id="Path_18748" data-name="Path 18748" d="M32.679,375.03s-1.2-15.811,9.072-22.511a.524.524,0,0,1,.82.455C42.443,355.5,41.277,363.043,32.679,375.03Z" transform="translate(-0.384 -219.792)" fill="#e8505b"/>
      <path id="Path_18749" data-name="Path 18749" d="M39.715,357.27a13.439,13.439,0,0,1-.939,2.648c-.741,1.8-1.6,3.953-2.559,6.255l-2.54,6.255a14.982,14.982,0,0,1-1.107,2.579,11.967,11.967,0,0,1,.721-2.718c.544-1.65,1.374-3.894,2.382-6.344s1.976-4.635,2.718-6.2a13.341,13.341,0,0,1,1.324-2.48Z" transform="translate(-0.383 -219.849)" fill="#263238"/>
      <path id="Path_18750" data-name="Path 18750" d="M14.319,246.18S.277,238.847,0,226.593a.524.524,0,0,1,.82-.455C2.905,227.582,8.686,232.552,14.319,246.18Z" transform="translate(0.001 -218.302)" fill="#e8505b"/>
      <path id="Path_18751" data-name="Path 18751" d="M3,230.86a13.174,13.174,0,0,1,1.749,2.194L8.7,238.529l3.953,5.465a14.36,14.36,0,0,1,1.6,2.3,11.641,11.641,0,0,1-1.927-2.046c-1.117-1.334-2.579-3.231-4.131-5.376s-2.886-4.131-3.824-5.583A12.847,12.847,0,0,1,3,230.86Z" transform="translate(-0.035 -218.359)" fill="#263238"/>
      <path id="Path_18752" data-name="Path 18752" d="M29.565,279.06s-14.458-6.473-15.485-18.687a.524.524,0,0,1,.791-.5C17.045,261.183,23.122,265.8,29.565,279.06Z" transform="translate(-0.165 -218.7)" fill="#e8505b"/>
      <path id="Path_18753" data-name="Path 18753" d="M17.29,264.45a14.044,14.044,0,0,1,1.878,2.085l4.289,5.228,4.3,5.208a14.33,14.33,0,0,1,1.729,2.2,11.65,11.65,0,0,1-2.046-1.976c-1.2-1.255-2.767-3.063-4.447-5.109s-3.133-3.953-4.15-5.346a12.074,12.074,0,0,1-1.552-2.293Z" transform="translate(-0.203 -218.755)" fill="#263238"/>
      <path id="Path_18754" data-name="Path 18754" d="M21.253,315.713S11.37,303.37,15.985,292a.524.524,0,0,1,.929-.089C18.248,294.042,21.559,300.89,21.253,315.713Z" transform="translate(-0.173 -219.076)" fill="#e8505b"/>
      <path id="Path_18755" data-name="Path 18755" d="M17,297.06a13.965,13.965,0,0,1,.721,2.718c.415,1.907.9,4.141,1.443,6.6s.988,4.694,1.453,6.6a15.486,15.486,0,0,1,.534,2.8,11.088,11.088,0,0,1-.988-2.648c-.494-1.66-1.077-3.953-1.631-6.572s-.988-4.941-1.265-6.651A12.847,12.847,0,0,1,17,297.06Z" transform="translate(-0.2 -219.139)" fill="#263238"/>
      <path id="Path_18756" data-name="Path 18756" d="M31.109,358.857s-14.359-6.71-15.169-18.944a.524.524,0,0,1,.8-.484C18.885,340.773,24.893,345.487,31.109,358.857Z" transform="translate(-0.187 -219.638)" fill="#e8505b"/>
      <path id="Path_18757" data-name="Path 18757" d="M19.07,344.05a13.835,13.835,0,0,1,1.848,2.115l4.2,5.3,4.21,5.277a15.5,15.5,0,0,1,1.7,2.233A11.856,11.856,0,0,1,29,357c-1.166-1.285-2.718-3.113-4.348-5.188s-3.073-3.953-4.071-5.406A13.607,13.607,0,0,1,19.07,344.05Z" transform="translate(-0.224 -219.693)" fill="#263238"/>
      <path id="Path_18758" data-name="Path 18758" d="M59.893,296.05a1.334,1.334,0,0,1,0,.346c0,.277,0,.613,0,.988,0,.988-.1,2.233-.168,3.844-.188,3.37-.445,8.084-.751,13.716h0c-.988,5.741-3.953,12.1-7.906,18.262-2.876,4.546-5.929,8.677-8.489,12.521a89.3,89.3,0,0,0-6.354,10.554,44.181,44.181,0,0,0-2.965,7.728c-.257.988-.445,1.69-.553,2.194a4.26,4.26,0,0,1-.208.761,3.953,3.953,0,0,1,.089-.791c.069-.514.227-1.255.445-2.223A41.415,41.415,0,0,1,35.86,356.1a84.212,84.212,0,0,1,6.295-10.653c2.579-3.874,5.583-8,8.449-12.531,3.9-6.137,6.8-12.4,7.906-18.035h0c.4-5.633.721-10.337.988-13.706.128-1.6.237-2.886.306-3.834.049-.405.079-.731.109-.988a1.107,1.107,0,0,1-.02-.306Z" transform="translate(-0.383 -219.128)" fill="#263238"/>
      <path id="Path_18759" data-name="Path 18759" d="M51.532,332.229S57.61,317.593,49.981,308a.524.524,0,0,0-.919.178C48.37,310.626,47.115,318.156,51.532,332.229Z" transform="translate(-0.569 -219.266)" fill="#e8505b"/>
      <path id="Path_18760" data-name="Path 18760" d="M50.45,313.17a12.846,12.846,0,0,1,.484,2.767c.217,1.719.455,4.1.642,6.74s.277,5.03.277,6.769a11.394,11.394,0,0,1-.168,2.807,14.586,14.586,0,0,1-.247-2.8c-.128-1.976-.287-4.22-.455-6.74s-.336-4.793-.464-6.74a14.289,14.289,0,0,1-.069-2.806Z" transform="translate(-0.594 -219.329)" fill="#263238"/>
      <g id="Group_9619" data-name="Group 9619" transform="translate(47.783 88.527)" opacity="0.3">
        <path id="Path_18761" data-name="Path 18761" d="M51.532,332.229S57.61,317.593,49.981,308a.524.524,0,0,0-.919.178C48.37,310.626,47.115,318.156,51.532,332.229Z" transform="translate(-48.352 -307.793)"/>
      </g>
      <path id="Path_18762" data-name="Path 18762" d="M32.464,367.911s4.872-15.08-3.528-24.014a.524.524,0,0,0-.9.247C27.552,346.645,26.92,354.245,32.464,367.911Z" transform="translate(-0.326 -219.69)" fill="#e8505b"/>
      <path id="Path_18763" data-name="Path 18763" d="M29.83,349a12.294,12.294,0,0,1,.7,2.718c.356,1.7.791,4.052,1.2,6.661s.682,5,.82,6.73a11.463,11.463,0,0,1,.059,2.807,15.189,15.189,0,0,1-.474-2.767c-.287-1.917-.623-4.18-.988-6.68s-.721-4.753-.988-6.68A14.3,14.3,0,0,1,29.83,349Z" transform="translate(-0.351 -219.752)" fill="#263238"/>
      <g id="Group_9620" data-name="Group 9620" transform="translate(27.405 124.038)" opacity="0.3">
        <path id="Path_18764" data-name="Path 18764" d="M32.464,367.911s4.872-15.08-3.528-24.014a.524.524,0,0,0-.9.247C27.552,346.645,26.92,354.245,32.464,367.911Z" transform="translate(-27.731 -343.728)"/>
      </g>
      <path id="Path_18765" data-name="Path 18765" d="M59.4,314.16s12.985-9.092,11.671-21.276a.524.524,0,0,0-.87-.346C68.324,294.238,63.224,299.91,59.4,314.16Z" transform="translate(-0.7 -219.085)" fill="#e8505b"/>
      <g id="Group_9621" data-name="Group 9621" transform="translate(58.7 73.322)" opacity="0.3">
        <path id="Path_18766" data-name="Path 18766" d="M59.4,314.16s12.985-9.092,11.671-21.276a.524.524,0,0,0-.87-.346C68.324,294.238,63.224,299.91,59.4,314.16Z" transform="translate(-59.4 -292.406)"/>
      </g>
      <path id="Path_18767" data-name="Path 18767" d="M68.73,297.49a12.846,12.846,0,0,1-1.077,2.6c-.741,1.561-1.818,3.706-3.073,6.028s-2.461,4.4-3.4,5.86a11.451,11.451,0,0,1-1.65,2.283,15.731,15.731,0,0,1,1.295-2.49l3.231-5.929,3.222-5.929A14.051,14.051,0,0,1,68.73,297.49Z" transform="translate(-0.701 -219.145)" fill="#263238"/>
      <path id="Path_18768" data-name="Path 18768" d="M37.81,352.895s15.663-2.441,19.853-13.963a.524.524,0,0,0-.632-.692C54.59,338.991,47.514,341.8,37.81,352.895Z" transform="translate(-0.445 -219.625)" fill="#e8505b"/>
      <g id="Group_9622" data-name="Group 9622" transform="translate(37.365 118.595)" opacity="0.3">
        <path id="Path_18769" data-name="Path 18769" d="M37.81,352.895s15.663-2.441,19.853-13.963a.524.524,0,0,0-.632-.692C54.59,338.991,47.514,341.8,37.81,352.895Z" transform="translate(-37.81 -338.22)"/>
      </g>
      <path id="Path_18770" data-name="Path 18770" d="M53.553,342a12.4,12.4,0,0,1-2.115,1.858c-1.354,1.077-3.261,2.53-5.415,4.062s-4.15,2.866-5.623,3.765A11.433,11.433,0,0,1,37.91,353a15.929,15.929,0,0,1,2.253-1.66l5.524-3.953,5.5-3.953A13.837,13.837,0,0,1,53.553,342Z" transform="translate(-0.446 -219.669)" fill="#263238"/>
      <path id="Path_18771" data-name="Path 18771" d="M22.646,382.23,18.08,412.963H46.54L42.854,382.23Z" transform="translate(-0.213 -220.143)" fill="#455a64"/>
      <path id="Path_18772" data-name="Path 18772" d="M44.026,391.866a113.347,113.347,0,0,1-11.483.3,113.215,113.215,0,0,1-11.473-.3c0-.168,5.139-.3,11.473-.3S44.026,391.7,44.026,391.866Z" transform="translate(-0.248 -220.254)" fill="#263238"/>
      <path id="Path_18773" data-name="Path 18773" d="M44.587,394.336c0,.168-5.307.3-11.859.3s-11.859-.128-11.859-.3,5.307-.3,11.859-.3S44.587,394.178,44.587,394.336Z" transform="translate(-0.246 -220.283)" fill="#263238"/>
    </g>
  </g>
</svg>
