<svg xmlns="http://www.w3.org/2000/svg" width="90" height="90" viewBox="0 0 90 90">
  <g id="Path_18530" data-name="Path 18530" fill="none">
    <path d="M45,0A45,45,0,1,1,0,45,45,45,0,0,1,45,0Z" stroke="none"/>
    <path d="M 45 1.5 C 39.12687683105469 1.5 33.43022537231445 2.649925231933594 28.06829833984375 4.917823791503906 C 22.88852691650391 7.108688354492188 18.23629760742188 10.24541473388672 14.24085235595703 14.24085235595703 C 10.24541473388672 18.23629760742188 7.108688354492188 22.88852691650391 4.917823791503906 28.06829833984375 C 2.649925231933594 33.43022537231445 1.5 39.12687683105469 1.5 45 C 1.5 50.87312316894531 2.649925231933594 56.56977462768555 4.917823791503906 61.93170166015625 C 7.108688354492188 67.11147308349609 10.24541473388672 71.76370239257813 14.24085235595703 75.75914764404297 C 18.23629760742188 79.75458526611328 22.88852691650391 82.89131164550781 28.06829833984375 85.08217620849609 C 33.43022537231445 87.35007476806641 39.12687683105469 88.5 45 88.5 C 50.87312316894531 88.5 56.56977462768555 87.35007476806641 61.93170166015625 85.08217620849609 C 67.11147308349609 82.89131164550781 71.76370239257813 79.75458526611328 75.75914764404297 75.75914764404297 C 79.75458526611328 71.76370239257813 82.89131164550781 67.11147308349609 85.08217620849609 61.93170166015625 C 87.35007476806641 56.56977462768555 88.5 50.87312316894531 88.5 45 C 88.5 39.12687683105469 87.35007476806641 33.43022537231445 85.08217620849609 28.06829833984375 C 82.89131164550781 22.88852691650391 79.75458526611328 18.23629760742188 75.75914764404297 14.24085235595703 C 71.76370239257813 10.24541473388672 67.11147308349609 7.108688354492188 61.93170166015625 4.917823791503906 C 56.56977462768555 2.649925231933594 50.87312316894531 1.5 45 1.5 M 45 0 C 69.85281372070313 0 90 20.14718627929688 90 45 C 90 69.85281372070313 69.85281372070313 90 45 90 C 20.14718627929688 90 0 69.85281372070313 0 45 C 0 20.14718627929688 20.14718627929688 0 45 0 Z" stroke="none" fill="#dfdfdf"/>
  </g>
  <g id="Group_9560" data-name="Group 9560" transform="translate(19.188 16.428)">
    <path id="Path_18460" data-name="Path 18460" d="M27.97,39.679,29,36.978a.872.872,0,0,0-.835-1.178h-19a5.95,5.95,0,0,0-5.892,5.3l-.786,7.218a1.367,1.367,0,0,0,1.08,1.522c.786.147,1.817.295,2.9.393l.687,11.49a1.793,1.793,0,0,0,1.817,1.719h5.548a1.793,1.793,0,0,0,1.817-1.719l.933-19.689a1.8,1.8,0,0,1,1.817-1.768h8.053A.9.9,0,0,0,27.97,39.679Z" transform="translate(0 -14.201)" fill="#fff"/>
    <circle id="Ellipse_542" data-name="Ellipse 542" cx="6.039" cy="6.039" r="6.039" transform="translate(5.728 7.9)" fill="#fff"/>
    <path id="Path_18461" data-name="Path 18461" d="M65.294,55.889l-.638-2.7a.909.909,0,0,1,.295-.884l2.111-1.817a.861.861,0,0,0-.491-1.522l-2.75-.245a.944.944,0,0,1-.737-.54L62,45.627a.87.87,0,0,0-1.62,0L59.3,48.181a.944.944,0,0,1-.737.54l-2.8.245a.861.861,0,0,0-.491,1.522l2.111,1.817a.947.947,0,0,1,.295.884l-.638,2.7a.871.871,0,0,0,1.326.933L60.728,55.4a1.04,1.04,0,0,1,.933,0l2.357,1.424A.848.848,0,0,0,65.294,55.889Z" transform="translate(-26.718 -18.922)" fill="#fff"/>
    <path id="Path_18462" data-name="Path 18462" d="M49.271,71.766l-2.75-.246a.944.944,0,0,1-.737-.54l-1.129-2.553a.87.87,0,0,0-1.62,0l-1.08,2.553a.944.944,0,0,1-.737.54l-2.75.245a.861.861,0,0,0-.491,1.522l2.111,1.817a.947.947,0,0,1,.295.884l-.638,2.7a.871.871,0,0,0,1.326.933L43.428,78.2a1.04,1.04,0,0,1,.933,0l2.357,1.424a.887.887,0,0,0,1.326-.933l-.638-2.7a.909.909,0,0,1,.295-.884l2.111-1.817A.9.9,0,0,0,49.271,71.766Z" transform="translate(-17.912 -30.527)" fill="#fff"/>
    <path id="Path_18463" data-name="Path 18463" d="M84.362,73.288a.861.861,0,0,0-.491-1.522l-2.75-.246a.944.944,0,0,1-.737-.54l-1.129-2.553a.87.87,0,0,0-1.62,0l-1.08,2.553a.944.944,0,0,1-.737.54l-2.75.245a.861.861,0,0,0-.491,1.522l2.111,1.817a.947.947,0,0,1,.295.884l-.638,2.7a.871.871,0,0,0,1.326.933L78.028,78.2a1.04,1.04,0,0,1,.933,0l2.357,1.424a.887.887,0,0,0,1.326-.933l-.687-2.7a.909.909,0,0,1,.295-.884Z" transform="translate(-35.524 -30.527)" fill="#fff"/>
  </g>
</svg>
