<svg xmlns="http://www.w3.org/2000/svg" width="70" height="70" viewBox="0 0 70 70">
  <rect id="Rectangle_2418" data-name="Rectangle 2418" width="70" height="70" rx="8" fill="#f3e7e9" opacity="0.75"/>
  <g id="Group_9575" data-name="Group 9575" transform="translate(-25 -25)">
    <path id="Path_18548" data-name="Path 18548" d="M54.99,59.864a5.443,5.443,0,0,1,0-8.6,7.192,7.192,0,0,1,3.354-1.625V48.229c0-1.992,3.512-1.992,3.512,0v1.415c2.83.577,5.4,2.83,5.451,5.87.052,1.992-3.407,2.044-3.459.052a3.284,3.284,0,0,0-1.992-2.778v5.87a8.263,8.263,0,0,1,3.354,1.572,5.551,5.551,0,0,1,0,8.7,7.72,7.72,0,0,1-3.354,1.625v1.415c0,1.992-3.512,1.992-3.512,0V70.556c-3.145-.681-5.4-3.092-5.451-5.923-.052-1.939,3.407-1.992,3.459-.052a3.084,3.084,0,0,0,1.992,2.778V61.332A7.006,7.006,0,0,1,54.99,59.864ZM61.856,61.8v5.556a3.245,3.245,0,0,0,.891-.577,2.814,2.814,0,0,0,.052-4.4A5.668,5.668,0,0,0,61.856,61.8Zm-4.4-8.438a2.774,2.774,0,0,0-.157,4.3,6.714,6.714,0,0,0,1.048.577V52.789A5.193,5.193,0,0,0,57.453,53.365ZM80.2,60.074A20.1,20.1,0,1,0,60.074,80.2,20.087,20.087,0,0,0,80.2,60.074Z" fill="#881729" fill-rule="evenodd"/>
  </g>
</svg>
